<svg width="521" height="521" xmlns="http://www.w3.org/2000/svg" preserveAspectRatio="xMidYMid meet" version="1.0">

 <g>
  <title>Layer 1</title>
  <g id="svg_1" fill="#000000" transform="translate(0 521) scale(0.1 -0.1)">
   <path fill="#cf610f" id="svg_2" d="m2661,4860c-19,-51 -29,-84 -36,-115c-3,-16 -26,-73 -50,-125c-48,-104 -88,-220 -75,-220c5,0 20,30 34,68c30,77 61,132 76,132c5,0 14,-15 19,-32l9,-33l1,37l1,37l36,-24c47,-32 69,-61 94,-126c23,-59 37,-79 52,-79c6,0 3,12 -7,26c-33,50 -137,374 -138,431c-1,29 -2,53 -3,53c-1,0 -7,-13 -13,-30zm3,-101c-3,-5 6,-34 19,-63c14,-30 23,-57 19,-60c-3,-3 -27,-6 -53,-6l-47,0l24,58c13,31 24,65 24,75c0,10 5,15 10,12c6,-4 8,-11 4,-16zm56,-164c19,-23 8,-26 -20,-5c-19,15 -21,20 -9,20c9,0 22,-7 29,-15z"/>
   <path fill="#cf610f" id="svg_3" d="m3216,4837c-9,-21 -30,-82 -47,-135c-17,-54 -34,-104 -38,-112c-23,-42 -53,-3 -148,190l-37,75l-7,-40c-4,-22 -24,-126 -43,-232c-38,-202 -42,-243 -26,-243c6,0 10,12 10,28c0,15 11,70 24,122c13,52 29,134 36,183c7,48 16,87 21,87c5,0 20,-22 34,-50c20,-39 25,-65 26,-127l1,-78l11,55l10,55l27,-82c15,-45 33,-92 42,-105c8,-13 20,-40 27,-60c7,-21 17,-38 23,-38c6,0 7,7 2,18c-4,9 -9,58 -12,107c-4,98 16,201 65,326c27,72 27,120 -1,56zm-87,-319l-1,-43l-14,33c-14,33 -12,52 7,52c5,0 9,-19 8,-42z"/>
   <path fill="#cf610f" id="svg_4" d="m2225,4827c-27,-13 -88,-36 -135,-52c-47,-15 -91,-33 -97,-39c-10,-9 -8,-28 12,-90c14,-43 25,-86 25,-96c0,-9 11,-48 24,-87c13,-38 27,-89 31,-112c5,-30 10,-40 18,-32c7,7 5,29 -7,75c-17,61 -17,67 0,120c13,40 23,56 35,56c10,0 24,2 31,5c9,4 20,-4 27,-17c11,-23 11,-23 7,-1c-3,18 3,24 33,34c46,15 94,39 89,45c-3,2 -31,-5 -64,-17c-32,-11 -84,-24 -114,-28c-30,-5 -62,-11 -70,-15c-12,-5 -18,4 -27,37c-16,58 3,130 36,135c15,3 21,-2 21,-17c0,-11 5,-23 10,-26c12,-8 13,-3 1,28c-9,22 -6,25 28,36c32,9 146,65 160,77c13,12 -31,0 -74,-19zm-192,-117c-3,-11 -7,-20 -9,-20c-2,0 -4,9 -4,20c0,11 4,20 9,20c5,0 7,-9 4,-20zm63,-166c-3,-9 -6,-20 -6,-25c0,-5 -4,-9 -10,-9c-11,0 -14,33 -3,43c12,13 25,7 19,-9z"/>
   <path fill="#cf610f" id="svg_5" d="m3368,4678c-14,-35 -29,-79 -33,-98c-4,-19 -27,-84 -51,-144c-25,-60 -42,-111 -39,-114c3,-3 13,2 22,11c21,18 72,12 80,-9c7,-20 68,-18 100,3c25,16 25,16 20,-2c-3,-11 -9,-33 -12,-50c-5,-29 -5,-29 11,5c9,19 40,64 68,100c68,84 76,100 76,150c0,63 -33,118 -85,141c-25,11 -48,26 -52,33c-10,16 -46,36 -66,36c-7,0 -25,-28 -39,-62zm56,0c-6,-22 -25,-41 -31,-34c-2,2 1,15 6,30c13,32 35,36 25,4zm56,-18c0,-5 -5,-10 -11,-10c-5,0 -7,5 -4,10c3,6 8,10 11,10c2,0 4,-4 4,-10zm64,-43c28,-37 33,-86 16,-146c-13,-45 -44,-77 -105,-108c-45,-23 -53,-24 -85,-13c-19,7 -45,20 -56,29l-21,17l27,69c14,39 34,91 44,118c10,26 24,47 32,47c16,0 17,-9 5,-42c-4,-13 -11,-41 -15,-63c-11,-62 8,-29 28,47c18,66 19,67 54,71c21,2 40,4 44,5c4,1 18,-13 32,-31z"/>
   <path fill="#cf610f" id="svg_6" d="m1617,4601c-61,-57 -73,-94 -57,-182c8,-47 21,-82 43,-111c42,-59 56,-68 100,-63c20,3 54,7 75,10c35,4 40,2 56,-28c15,-29 17,-13 2,24c-5,11 3,19 25,30c55,24 74,61 73,139c-2,91 -16,121 -79,170c-47,36 -61,42 -123,47l-70,6l-45,-42zm63,15c0,-3 -4,-8 -10,-11c-5,-3 -10,-1 -10,4c0,6 5,11 10,11c6,0 10,-2 10,-4zm16,-34c-23,-23 -33,-6 -10,19c12,13 20,16 22,9c3,-7 -3,-19 -12,-28zm32,-9c-21,-20 -40,-35 -43,-31c-8,8 48,67 65,68c9,0 0,-15 -22,-37zm87,22c18,-14 18,-16 2,-32c-16,-16 -18,-16 -34,0c-12,12 -13,17 -4,17c8,0 11,6 7,15c-7,19 3,19 29,0zm-165,-4c0,-5 -7,-12 -16,-15c-14,-5 -15,-4 -4,9c14,17 20,19 20,6zm10,-31c0,-8 -51,-40 -65,-40c-3,0 -5,6 -5,14c0,8 12,19 28,24c36,14 42,14 42,2zm70,-25c-13,-14 -28,-25 -33,-25c-6,0 0,11 13,25c13,14 28,25 33,25c6,0 0,-11 -13,-25zm54,-19c-3,-9 -10,-16 -14,-16c-12,0 -20,28 -14,45c5,12 8,12 20,0c8,-7 11,-21 8,-29zm102,-2c19,-46 19,-144 -1,-144c-28,0 -70,103 -66,163c1,24 21,21 21,-4c0,-28 29,-127 39,-134c5,-2 0,30 -10,73c-11,42 -19,81 -19,85c0,18 23,-7 36,-39zm-216,18c0,-9 -44,-32 -58,-32c-9,1 41,39 51,40c4,0 7,-4 7,-8zm-83,-44c-3,-8 -6,-5 -6,6c-1,11 2,17 5,13c3,-3 4,-12 1,-19zm79,7c-11,-8 -25,-15 -30,-15c-6,0 -2,7 8,15c11,8 25,15 30,15c6,0 2,-7 -8,-15zm89,-5c3,-5 -1,-10 -10,-10c-9,0 -13,5 -10,10c3,6 8,10 10,10c2,0 7,-4 10,-10zm75,-75c18,-29 19,-35 6,-35c-27,0 -56,38 -56,73c0,43 13,56 21,23c4,-14 17,-42 29,-61zm-194,2c-3,-14 -13,-28 -22,-31c-13,-5 -15,-2 -9,11c4,10 9,29 12,43c3,22 2,22 -10,-5c-11,-25 -14,-27 -20,-12c-4,10 -1,27 5,37c12,19 13,19 32,1c13,-13 17,-27 12,-44zm44,53c-20,-13 -33,-13 -25,0c3,6 14,10 23,10c15,0 15,-2 2,-10zm60,-4c0,-3 -4,-8 -10,-11c-5,-3 -10,-1 -10,4c0,6 5,11 10,11c6,0 10,-2 10,-4zm-45,-16c-3,-5 -11,-10 -16,-10c-6,0 -7,5 -4,10c3,6 11,10 16,10c6,0 7,-4 4,-10zm79,-59c-9,-11 -24,15 -23,42l1,32l12,-35c8,-19 12,-37 10,-39zm-104,29c0,-5 -5,-10 -11,-10c-5,0 -7,5 -4,10c3,6 8,10 11,10c2,0 4,-4 4,-10zm-4,-51c3,-6 2,-15 -4,-21c-6,-6 -11,-2 -15,11c-5,22 7,29 19,10zm84,1c0,-5 -4,-10 -9,-10c-6,0 -13,5 -16,10c-3,6 1,10 9,10c9,0 16,-4 16,-10zm-40,-10c0,-5 -9,-14 -20,-20c-22,-12 -27,-1 -8,18c14,14 28,16 28,2zm173,-10c10,-9 -45,-50 -67,-50c-11,0 -16,9 -16,28c0,16 3,31 6,35c8,7 66,-2 77,-13zm-243,-11c15,-28 4,-38 -15,-13c-17,22 -19,34 -5,34c5,0 14,-9 20,-21zm142,-14c3,-28 1,-35 -13,-35c-22,0 -36,50 -17,61c22,14 26,11 30,-26zm-47,-22c6,-21 3,-23 -34,-23c-48,0 -51,10 -14,40c28,22 37,19 48,-17z"/>
   <path fill="#cf610f" id="svg_7" d="m3985,4480c-3,-10 -27,-47 -52,-82c-59,-79 -56,-76 -96,-123c-19,-22 -53,-71 -76,-110c-23,-38 -49,-81 -58,-95c-9,-15 -3,-11 16,10c17,19 49,64 70,100c22,36 48,73 59,83c18,17 21,17 61,-6l41,-24l-21,-26c-11,-15 -16,-27 -11,-27c5,0 16,10 24,21l14,21l38,-26c21,-14 48,-26 59,-26c19,0 20,1 2,20c-10,11 -23,20 -30,20c-7,0 -24,11 -39,25c-15,14 -43,32 -63,40c-36,15 -36,15 -17,38c46,56 89,97 100,97c24,0 26,-22 5,-51c-31,-42 -26,-49 8,-9l28,34l61,-32c62,-33 101,-43 66,-17c-12,9 -14,14 -6,15c24,0 1,20 -23,20c-30,0 -133,87 -134,113c-1,23 -18,22 -26,-3z"/>
   <path fill="#cf610f" id="svg_8" d="m1243,4403c-12,-2 -39,-23 -61,-47c-54,-59 -63,-115 -29,-190c18,-38 38,-63 65,-81c22,-15 46,-39 52,-55c7,-16 19,-35 28,-42c11,-9 10,-1 -6,25c-12,21 -22,39 -22,41c0,1 15,0 34,-2c131,-15 235,128 182,251c-20,48 -54,74 -122,91c-61,16 -79,17 -121,9zm120,-35c9,-5 17,-16 17,-26c0,-15 2,-15 10,-2c27,39 93,-117 69,-162c-48,-93 -103,-116 -194,-80c-52,20 -85,62 -99,129c-8,33 13,90 42,116c19,18 21,17 53,-40c39,-70 37,-68 45,-60c4,3 -6,27 -21,53c-23,39 -25,50 -16,71c10,21 16,24 44,18c17,-4 40,-11 50,-17z"/>
   <path fill="#cf610f" id="svg_9" d="m2355,4323c-182,-22 -402,-90 -580,-177c-211,-104 -367,-218 -527,-383c-551,-573 -676,-1435 -309,-2138c131,-250 255,-404 465,-580c214,-179 513,-323 794,-385c46,-10 86,-21 89,-23c2,-3 0,-22 -6,-44c-6,-21 -11,-52 -11,-70c0,-17 -4,-34 -9,-37c-9,-6 -63,72 -79,114c-8,23 -10,20 -21,-30c-27,-121 -36,-209 -23,-222c9,-9 12,-1 12,39c0,61 16,110 40,123c15,8 20,3 34,-33c9,-24 16,-48 16,-55c0,-7 6,-12 13,-12c12,0 35,99 51,210c1,10 11,14 26,13c14,-2 104,-6 200,-9c262,-9 472,24 708,112c790,295 1286,1090 1202,1925c-85,842 -735,1526 -1570,1654c-87,14 -429,19 -515,8zm610,-37c66,-14 162,-40 214,-57c128,-43 366,-165 481,-246c124,-88 346,-311 432,-433c132,-188 239,-426 293,-656c33,-136 40,-225 39,-454c-2,-156 -6,-216 -23,-300c-44,-216 -120,-418 -223,-591c-29,-49 -57,-88 -63,-86c-10,4 -26,71 -65,277c-12,63 -24,124 -27,135c-2,11 -6,72 -8,135c-4,150 -15,176 -53,130c-15,-17 -24,-19 -70,-14c-41,5 -52,10 -50,23c2,12 15,16 47,16c56,0 74,22 49,62c-10,16 -26,28 -37,27c-11,0 -18,3 -15,8c3,4 16,8 29,8c27,0 48,30 39,54c-7,18 -24,21 -42,6c-9,-7 -9,-7 -2,2c6,7 10,22 10,34c0,14 6,21 16,20c34,-3 38,28 14,102c-29,92 -29,154 -1,250c5,18 6,30 1,27c-5,-3 -11,-1 -15,5c-11,18 -25,11 -40,-22l-15,-33l4,31c4,28 2,32 -20,37c-16,3 -28,-1 -34,-12c-4,-9 -12,-12 -16,-8c-16,16 25,40 68,40l43,-1l1,46c2,107 12,142 54,189c22,25 40,53 40,62c0,10 5,22 12,29c16,16 -13,26 -56,18c-64,-12 -149,-100 -163,-169c-3,-16 -14,-34 -24,-40c-23,-14 -25,-27 -5,-27c26,0 39,-97 17,-123c-9,-11 -9,-21 -3,-34c17,-32 25,-155 12,-188c-6,-16 -12,-32 -12,-35c-1,-9 -61,-31 -67,-25c-3,4 0,10 7,14c10,6 5,15 -18,35c-17,14 -35,26 -39,26c-4,0 -27,18 -51,39c-26,23 -50,37 -58,33c-10,-3 -13,-1 -8,6c4,7 19,12 34,12c21,0 24,2 12,10c-13,9 -13,12 3,24c9,7 17,17 17,21c0,5 -8,2 -17,-6c-19,-15 -37,-17 -63,-6c-24,10 -160,15 -154,5c3,-4 0,-8 -5,-8c-6,0 -11,4 -11,10c0,5 -7,7 -15,4c-8,-4 -21,-2 -28,4c-6,6 -21,12 -32,14c-27,4 -47,30 -32,40c7,5 0,8 -15,8c-28,0 -33,-9 -28,-54c1,-10 -4,-22 -12,-27c-23,-15 6,-30 74,-39c41,-5 94,-22 143,-44c42,-21 79,-35 81,-33c8,8 -9,67 -17,61c-5,-3 -9,0 -9,6c0,6 6,10 13,9c6,-1 25,3 41,10c16,6 31,9 34,6c3,-3 0,-5 -6,-5c-18,0 -43,-45 -36,-63c3,-9 23,-21 44,-27c34,-9 52,-27 54,-54c1,-5 8,-10 17,-11c32,-5 64,-18 71,-29c16,-23 7,-27 -18,-7c-15,11 -31,18 -36,15c-12,-8 -60,25 -53,36c3,5 -12,18 -33,29c-35,18 -39,18 -48,3c-9,-14 -13,-14 -35,7c-18,16 -32,21 -54,18c-16,-3 -48,-8 -70,-12c-32,-6 -52,-2 -98,20c-44,19 -67,25 -90,19c-47,-10 -57,-22 -57,-69c0,-54 24,-76 90,-83c50,-5 57,-12 44,-46c-5,-12 -10,-14 -19,-6c-20,17 -62,-8 -76,-44c-9,-24 -13,-27 -16,-13c-8,34 6,65 34,75l28,9l-24,7c-17,6 -29,3 -44,-13c-20,-20 -24,-43 -19,-126c2,-34 -6,-168 -13,-202c-6,-35 8,-51 30,-33c11,9 12,17 5,30c-16,30 -13,63 6,56c9,-3 20,-6 25,-6c5,0 9,-7 9,-17c0,-9 3,-13 6,-10c4,3 15,2 25,-3c13,-8 20,-6 28,7c20,35 12,-20 -9,-65c-23,-47 -24,-52 -10,-52c6,0 10,9 10,19c0,24 16,36 23,19c3,-7 6,1 6,17c2,52 12,75 33,75c18,0 20,-5 15,-40c-6,-49 10,-53 19,-4c6,32 9,35 35,29c22,-5 31,-2 44,18c10,16 14,34 9,51c-4,16 -1,32 7,42c26,32 -18,39 -108,17c-18,-4 -23,-1 -23,14c0,28 10,34 27,17c11,-11 19,-12 28,-4c8,6 33,10 57,8c39,-3 43,-1 42,20c0,12 3,22 8,22c4,0 7,3 6,8c-3,8 5,12 24,12c6,0 3,-9 -8,-21c-22,-24 -11,-50 27,-60c19,-6 15,-7 -18,-8c-33,-1 -43,-5 -48,-21c-4,-12 -1,-27 5,-35c7,-8 10,-24 7,-35c-3,-11 1,-27 10,-35c13,-13 11,-15 -16,-15c-44,0 -38,-18 14,-41c44,-20 45,-21 45,-67c0,-27 -4,-52 -9,-58c-6,-5 -4,-19 4,-34l14,-25l2,35c4,54 5,63 13,88c9,26 26,29 26,5c1,-17 1,-17 11,0c6,9 14,15 20,12c5,-4 2,-16 -6,-29c-19,-28 -13,-45 35,-111c44,-59 60,-102 60,-160c0,-23 3,-45 6,-48c9,-9 12,-77 4,-77c-4,0 -14,7 -21,17c-18,21 -71,43 -103,43c-42,0 -126,21 -121,30c3,5 1,11 -5,15c-5,3 -10,1 -10,-4c0,-32 -168,14 -275,74c-33,19 -81,59 -108,90c-60,69 -86,72 -141,16c-44,-45 -32,-67 15,-27c42,36 62,33 114,-19c68,-66 102,-90 183,-124c40,-16 88,-42 107,-57c19,-14 35,-22 35,-17c0,5 -11,16 -25,23c-43,23 -27,28 38,11c51,-13 63,-21 65,-39c2,-12 7,-20 12,-17c5,3 7,12 3,20c-3,8 0,15 7,15c8,0 11,-28 9,-98l-3,-99l-35,3c-35,2 -36,2 -13,-13c27,-19 28,-30 5,-57c-13,-15 -10,-14 10,3c24,22 27,23 27,6c0,-10 3,-16 6,-12c7,6 11,4 72,-49c44,-38 60,-34 18,5c-25,23 -28,61 -12,141c5,26 4,31 -3,20c-17,-24 -13,-2 5,25c16,25 11,51 -8,39c-6,-4 -8,2 -3,17c5,18 4,20 -4,9c-9,-13 -12,-12 -26,5c-15,19 -16,19 -4,-5c8,-17 9,-25 1,-28c-6,-2 -9,-9 -6,-17c3,-7 1,-16 -5,-20c-7,-4 -11,16 -11,60c0,59 2,66 18,61c9,-3 29,-8 45,-12c15,-3 27,-9 27,-13c0,-3 13,-6 30,-7c16,-1 48,-13 69,-29c39,-26 43,-35 56,-115c3,-19 12,-62 19,-95c8,-33 12,-78 10,-100c-3,-30 -2,-35 5,-20c10,20 11,17 15,-25c1,-8 9,-31 17,-50c9,-19 18,-52 22,-72c5,-32 3,-38 -16,-44c-11,-4 -28,-13 -36,-22c-64,-63 -373,-258 -392,-247c-6,4 -17,49 -24,105c-2,16 -11,41 -25,75c-15,36 -11,-40 6,-117c9,-38 12,-74 8,-78c-22,-21 -282,-110 -322,-110c-4,0 -2,62 5,137c18,199 19,200 53,212c36,12 42,54 10,73c-11,7 -20,21 -20,30c0,10 -3,18 -7,18c-59,4 -218,22 -250,28c-24,5 -43,6 -43,2c0,-9 95,-28 180,-36c36,-3 76,-7 89,-10c22,-5 22,-6 7,-23c-11,-12 -16,-33 -15,-57c1,-22 -6,-106 -16,-187c-15,-115 -22,-150 -35,-157c-21,-11 -163,3 -245,23c-33,9 -108,23 -167,31c-60,9 -156,23 -215,33c-106,16 -166,24 -269,38c-91,12 -208,41 -211,52c-3,8 11,7 43,-3c26,-8 58,-14 71,-14c23,0 23,1 7,25c-15,23 -15,25 1,25c12,0 15,5 10,18c-4,9 -12,31 -17,47c-6,17 -17,37 -26,45c-13,13 -14,13 -8,-4c9,-27 -2,-56 -20,-49c-7,3 -14,0 -14,-6c0,-6 5,-11 11,-11c7,0 9,-10 5,-26c-6,-21 -4,-25 8,-21c9,4 18,2 22,-4c10,-17 -2,-21 -39,-14c-33,6 -35,10 -41,55c-7,54 19,218 38,235c14,13 18,72 6,80c-11,7 -2,57 12,66c5,3 11,33 13,65c4,57 5,59 32,58c23,0 215,-26 381,-50c21,-3 32,-11 33,-22c0,-10 3,-12 6,-4c2,6 15,12 28,12c14,0 25,7 28,19c4,16 10,17 58,10c30,-5 105,-15 168,-23c107,-14 153,-26 102,-26c-12,0 -20,-4 -16,-10c3,-5 1,-39 -6,-75l-11,-66l-34,7c-46,9 -108,40 -91,47c8,3 35,0 60,-6c26,-6 50,-8 53,-5c11,11 15,83 6,97c-6,8 -36,15 -74,18c-76,6 -92,-6 -86,-65l3,-38l-40,2c-22,1 -71,6 -110,10c-39,4 -66,3 -62,-2c5,-5 32,-11 60,-14l52,-6l-37,-16c-32,-14 -43,-15 -80,-3c-68,20 -145,28 -153,16c-4,-7 6,-11 29,-11c30,0 135,-19 145,-26c2,-2 -12,-19 -31,-38c-78,-80 -77,-219 1,-290c12,-11 28,-32 36,-49c14,-28 14,-29 -8,-24c-12,3 -83,15 -157,27c-74,11 -145,23 -157,26c-13,2 -23,1 -23,-4c0,-11 73,-27 210,-47c58,-8 127,-20 153,-26c54,-13 75,-5 32,11c-15,6 -25,13 -22,16c3,3 19,-2 36,-10c49,-26 128,-24 188,3c119,55 160,220 84,342l-30,49l57,-6c31,-4 95,-12 142,-19c47,-7 88,-11 91,-9c4,2 10,29 14,59c3,30 10,55 14,55c16,0 45,-41 35,-48c-6,-4 -14,-24 -17,-45c-6,-36 -5,-38 19,-35c19,2 33,17 55,57c28,51 29,55 13,72c-13,14 -20,16 -31,8c-9,-9 -21,-8 -43,1c-24,10 -29,17 -24,34c6,27 -10,43 -48,48c-21,2 -25,6 -19,17c8,12 16,10 50,-12c22,-14 51,-39 65,-54c14,-15 26,-23 26,-16c0,14 -111,113 -127,113c-6,0 -21,-12 -32,-26l-20,-26l-83,17c-46,9 -94,17 -108,17c-14,0 -83,8 -154,18c-71,11 -133,17 -138,14c-4,-3 -8,-12 -8,-21c0,-10 -6,-13 -16,-9c-9,3 -20,6 -25,6c-5,0 0,9 11,20c11,11 20,24 20,29c0,4 -37,13 -82,18c-71,9 -85,8 -95,-5c-10,-11 -10,-19 -1,-29c14,-18 7,-24 -19,-17c-12,3 -23,14 -26,25c-3,10 -13,19 -24,18c-10,0 -13,-3 -5,-6c6,-2 12,-10 12,-17c0,-8 -13,-10 -45,-6c-25,3 -45,9 -45,15c0,5 14,8 30,7c17,-2 30,1 30,7c0,6 -18,11 -40,11c-29,0 -40,-4 -40,-15c0,-19 -9,-19 -24,-1c-6,7 -24,16 -41,19c-37,7 -63,-13 -93,-72c-19,-36 -22,-53 -16,-97c5,-44 4,-54 -9,-54c-23,0 -40,-27 -33,-55c4,-14 14,-25 22,-25c13,0 15,-6 9,-27c-32,-126 -46,-295 -26,-307c5,-4 29,-10 53,-15c169,-35 209,-41 253,-41c28,0 68,-5 90,-10c22,-5 99,-16 170,-25c131,-16 164,-22 310,-55c44,-10 121,-22 170,-26c107,-9 93,-15 -85,-40c-89,-13 -155,-15 -290,-10c-206,7 -202,7 -349,41c-139,32 -253,72 -384,133l-98,45l7,56c3,31 15,98 25,150c22,109 21,101 9,101c-12,0 -36,-80 -56,-189c-9,-48 -18,-88 -20,-90c-2,-2 -27,11 -56,30c-103,64 -224,164 -333,274c-133,134 -168,177 -63,77c42,-39 81,-72 86,-72c6,0 13,8 15,17c4,14 5,13 6,-4c0,-12 6,-25 11,-28c7,-4 9,15 7,57c-3,35 -3,53 0,40c8,-43 20,-22 13,24c-5,33 0,82 17,168c24,121 24,121 71,164c26,24 74,64 107,89c33,25 75,60 94,77l33,31l-5,-40c-12,-85 -17,-180 -8,-160c5,11 12,60 16,108l8,88l26,-6c14,-4 44,-9 66,-12c22,-2 58,-8 80,-13c22,-5 56,-9 75,-9c53,0 17,15 -55,23c-101,12 -125,18 -125,32c0,7 8,17 18,22c13,8 131,24 187,27c6,0 9,-11 7,-24c-2,-21 2,-20 35,17c40,43 99,69 87,38c-3,-9 -1,-16 5,-16c6,0 11,5 11,11c0,5 5,7 10,4c23,-14 6,-47 -60,-118c-76,-81 -90,-108 -90,-169c0,-29 -8,-51 -26,-75c-33,-44 -60,-121 -46,-135c7,-7 12,-3 17,13c8,24 36,69 68,105c9,11 22,47 27,80c13,81 25,105 63,131c30,22 56,54 131,168c21,31 57,66 97,93c58,39 64,41 70,24c4,-11 14,-22 23,-25c9,-4 13,-13 10,-21c-3,-8 -1,-24 6,-35c6,-12 7,-21 3,-20c-25,4 -42,-4 -48,-22c-9,-26 8,-39 52,-39c33,0 89,-17 81,-25c-2,-3 -20,0 -38,5c-25,7 -36,6 -42,-3c-12,-19 -9,-37 7,-37c8,0 15,-4 15,-9c0,-11 -38,-2 -46,10c-3,5 -14,9 -24,9c-10,0 -49,16 -85,35c-37,19 -71,32 -76,29c-5,-2 24,-22 64,-43c51,-27 73,-44 77,-62c6,-23 6,-23 12,-3c5,21 8,21 59,9l54,-12l-1,-72c0,-81 10,-75 21,12l6,57l67,-6c52,-4 81,-1 131,15c35,12 71,21 81,21c11,0 35,-26 60,-65c23,-36 58,-82 76,-102c19,-20 34,-40 34,-45c0,-4 -16,-10 -36,-14c-25,-5 -32,-9 -22,-15c9,-6 4,-9 -17,-10c-16,0 -24,-3 -17,-6c9,-4 10,-9 2,-18c-8,-9 2,-8 34,3c24,9 42,20 40,24c-3,4 2,8 10,8c9,0 16,6 16,13c1,6 10,1 21,-13c11,-14 36,-41 55,-61c32,-35 68,-111 57,-123c-8,-7 37,-67 46,-61c12,7 -21,135 -45,175c-12,19 -55,74 -97,121c-108,126 -134,167 -162,265c-31,109 -60,162 -104,191c-33,22 -58,23 -45,1c4,-7 2,-8 -4,-4c-7,4 -12,21 -12,38c0,28 -2,30 -27,22c-34,-10 -120,-9 -190,1c-35,5 -53,4 -53,-3c0,-5 -12,-13 -27,-17c-55,-13 -183,-109 -183,-136c0,-9 -63,-4 -78,5c-8,4 -91,-32 -114,-51c-7,-6 -62,-13 -122,-17c-102,-6 -114,-9 -170,-43c-34,-20 -74,-48 -91,-63c-16,-15 -57,-47 -90,-71c-33,-23 -73,-54 -88,-68l-28,-26l6,55c11,85 32,160 52,184c60,69 72,99 58,144c-5,14 -3,22 4,22c6,0 11,-4 11,-10c0,-5 5,-10 11,-10c5,0 8,4 5,9c-8,12 10,24 76,50c71,29 66,46 -11,37c-42,-5 -62,-3 -76,8c-19,14 -19,15 5,9l25,-5l-23,17c-33,25 -56,16 -60,-23c-2,-18 2,-40 8,-47c19,-23 3,-34 -30,-22c-22,8 -33,8 -41,0c-9,-9 -19,-7 -39,10c-15,12 -34,27 -43,32c-19,12 -31,74 -19,93c5,7 16,10 25,6c13,-4 14,-10 7,-24c-13,-25 6,-82 20,-60c7,12 11,10 19,-10c5,-14 10,-19 10,-12c1,6 9,12 19,12c11,0 27,9 37,20c11,12 13,20 6,20c-7,0 -9,9 -6,23c8,32 -16,51 -56,43c-18,-3 -28,-2 -24,4c3,6 14,10 24,10c27,0 62,35 55,54c-5,12 0,16 21,16c24,0 25,-1 11,-16c-17,-16 -21,-61 -8,-80c4,-6 23,-15 42,-19c19,-4 46,-17 61,-28c37,-26 59,-17 59,26c0,18 5,38 10,43c22,22 -1,42 -51,46c-28,3 -55,10 -61,16c-7,7 2,9 32,5c50,-7 67,10 45,43c-8,12 -12,24 -9,27c8,8 44,-31 44,-47c0,-23 31,-27 90,-11c30,8 55,13 56,12c0,-1 4,-15 8,-31l7,-29l-48,7c-88,13 -88,13 -85,-9c2,-11 5,-39 6,-63c2,-23 6,-45 9,-49c4,-3 32,-1 62,6c30,7 59,10 65,6c5,-3 10,-27 10,-52c0,-36 3,-44 15,-39c10,4 17,-3 21,-22c10,-44 12,-48 13,-19c1,15 -8,45 -19,67c-11,22 -20,46 -20,55c0,8 9,15 20,15c15,0 20,-7 21,-27c2,-27 2,-27 6,-3c3,19 13,28 38,36c40,13 45,6 45,-61c0,-28 6,-47 17,-56c15,-12 16,-12 10,4c-8,20 -26,263 -24,318c1,50 -28,93 -56,84c-64,-20 -147,-38 -152,-33c-3,3 -3,17 1,32c6,25 9,26 76,26c70,0 121,17 131,43c8,22 -4,71 -21,85c-24,19 -64,14 -126,-14c-42,-19 -66,-24 -89,-20c-78,16 -96,17 -117,6c-16,-9 -20,-17 -16,-36c4,-14 2,-24 -4,-24c-5,0 -10,-5 -10,-11c0,-8 4,-9 13,0c8,6 17,8 20,4c13,-12 6,-38 -18,-68c-26,-31 -33,-28 -14,6c8,16 7,25 -7,40c-14,16 -16,24 -7,38c6,10 8,24 3,31c-11,18 -75,0 -75,-20c0,-15 -60,-60 -79,-60c-6,1 2,8 17,16c16,9 27,18 24,20c-7,8 -60,-16 -72,-33c-10,-14 -15,-13 -38,11c-14,14 -33,26 -42,26c-9,0 -15,6 -14,13c1,6 -3,25 -10,42c-8,20 -10,53 -6,100c7,80 -5,109 -42,99c-19,-5 -21,-11 -16,-37c4,-21 3,-28 -5,-23c-7,4 -12,15 -12,25c0,20 -19,41 -36,41c-19,0 -20,-28 -5,-107c15,-70 14,-74 -11,-163c-31,-105 -28,-125 13,-116c28,5 39,-6 19,-19c-6,-4 -8,-10 -5,-15c3,-4 -5,-10 -16,-13c-15,-4 -20,-12 -18,-29c2,-13 0,-29 -4,-35c-6,-10 0,-11 25,-7c52,9 58,12 52,29c-3,8 -10,13 -14,10c-5,-3 -12,0 -16,6c-5,8 -3,9 6,4c10,-6 12,-4 7,9c-4,11 -3,15 4,11c6,-4 14,-18 19,-31c5,-13 18,-24 28,-24c31,0 33,-12 5,-27c-15,-8 -39,-11 -53,-8c-52,11 -79,-59 -32,-84c9,-5 32,-6 50,-4c25,4 32,10 32,28c0,29 10,55 20,55c12,0 20,-28 13,-46c-5,-13 -7,-13 -14,-2c-9,13 -14,-23 -10,-64c2,-14 -5,-18 -33,-18c-39,0 -65,-27 -68,-70c0,-14 -4,-2 -7,25c-4,35 -10,50 -21,50c-8,0 -16,-10 -18,-23c-2,-12 -7,-20 -12,-17c-12,7 -1,37 18,53c14,11 14,12 -1,12c-28,0 -37,-34 -37,-137c0,-68 -8,-132 -26,-208c-13,-60 -27,-132 -29,-160c-3,-27 -7,-59 -9,-70c-3,-11 -5,-27 -6,-35c-3,-48 -135,220 -184,374c-73,229 -95,402 -85,661c15,374 150,740 384,1040c151,193 414,409 620,510c44,21 91,44 105,51c93,45 363,119 510,137c19,3 134,4 255,2c193,-3 235,-6 340,-29zm1039,-1152c22,-8 10,-24 -19,-24c-13,0 -27,-5 -30,-10c-4,-6 -10,-8 -15,-5c-5,3 -11,1 -15,-5c-3,-5 -2,-10 3,-10c5,0 -2,-13 -17,-29c-15,-17 -29,-24 -32,-19c-9,14 -32,-30 -25,-48c4,-9 -1,-14 -15,-14c-19,0 -19,0 0,38c22,42 72,92 116,115c36,19 30,18 49,11zm-72,-116c-7,-7 -12,-8 -12,-2c0,6 3,14 7,17c3,4 9,5 12,2c2,-3 -1,-11 -7,-17zm-103,-133l0,-20l-9,20c-5,11 -9,29 -9,40l0,20l9,-20c5,-11 9,-29 9,-40zm95,40c-4,-8 -8,-15 -10,-15c-2,0 -4,7 -4,15c0,8 4,15 10,15c5,0 7,-7 4,-15zm-57,-62c-3,-10 -5,-2 -5,17c0,19 2,27 5,18c2,-10 2,-26 0,-35zm-23,-118c-9,-22 6,-106 17,-100c15,10 10,-11 -5,-24c-12,-10 -15,-2 -21,53c-4,35 -4,69 0,75c9,16 15,13 9,-4zm-2570,-62c-4,-27 -7,-54 -7,-60c0,-16 -13,-17 -23,-2c-3,6 -2,14 3,18c6,3 14,25 18,49c4,23 9,42 11,42c3,0 2,-21 -2,-47zm2116,-13c22,-11 40,-23 40,-25c0,-3 -15,2 -32,11c-18,9 -44,20 -58,25c-17,5 -19,8 -7,8c10,1 36,-8 57,-19zm72,-12c-7,-7 -12,-8 -12,-2c0,6 3,14 7,17c3,4 9,5 12,2c2,-3 -1,-11 -7,-17zm-2255,-25c-3,-10 -5,-4 -5,12c0,17 2,24 5,18c2,-7 2,-21 0,-30zm2703,15c0,-18 -2,-20 -9,-8c-6,8 -7,18 -5,22c9,14 14,9 14,-14zm2,-95c3,-29 2,-53 -2,-53c-4,0 -7,6 -7,13c0,6 -3,34 -7,62c-3,28 -2,45 3,40c5,-6 11,-34 13,-62zm-2702,10c0,-30 -3,-44 -10,-37c-8,8 -3,84 6,84c2,0 4,-21 4,-47zm721,20c13,-16 12,-17 -3,-4c-10,7 -18,15 -18,17c0,8 8,3 21,-13zm1944,7c-3,-5 -11,-10 -16,-10c-6,0 -7,5 -4,10c3,6 11,10 16,10c6,0 7,-4 4,-10zm-1985,-44c0,-6 -5,-4 -10,4c-9,13 -10,13 -10,0c0,-13 -2,-13 -9,0c-6,8 -7,18 -4,23c6,10 33,-11 33,-27zm-253,-8c-3,-8 -6,-5 -6,6c-1,11 2,17 5,13c3,-3 4,-12 1,-19zm68,2c10,-11 15,-20 11,-20c-14,0 -46,21 -46,30c0,16 16,11 35,-10zm1725,11c0,-12 -20,-25 -27,-18c-7,7 6,27 18,27c5,0 9,-4 9,-9zm-1756,-37c5,-14 4,-15 -9,-4c-17,14 -19,20 -6,20c5,0 12,-7 15,-16zm-403,-23c-23,-32 -27,-46 -10,-35c8,4 8,0 0,-15c-14,-25 -22,-28 -15,-3c4,12 0,10 -15,-7c-12,-13 -21,-19 -21,-15c1,11 68,104 76,104c3,0 -4,-13 -15,-29zm579,19c0,-5 -7,-10 -15,-10c-8,0 -15,5 -15,10c0,6 7,10 15,10c8,0 15,-4 15,-10zm2040,-32c27,-50 22,-48 -14,5c-14,20 -22,37 -18,37c5,0 19,-19 32,-42zm-2650,13c-5,-11 -15,-23 -22,-27c-7,-5 -8,-2 -3,7c21,37 44,55 25,20zm560,14c0,-2 -15,-8 -32,-13c-18,-6 -42,-13 -53,-18c-12,-4 -17,-3 -12,2c16,17 97,42 97,29zm1704,-4c3,-5 -1,-14 -9,-21c-13,-10 -15,-9 -15,9c0,21 14,28 24,12zm101,-1c-3,-5 -12,-10 -18,-10c-7,0 -6,4 3,10c19,12 23,12 15,0zm-2071,-15c11,-8 18,-17 15,-19c-2,-3 -15,4 -29,14c-14,11 -20,20 -15,19c6,0 19,-6 29,-14zm-178,-16c6,-11 -46,-73 -54,-64c-7,6 30,75 40,75c4,0 10,-5 14,-11zm2541,-112c-9,-36 -10,-37 -27,-20c-17,17 -17,19 4,41c19,21 19,25 5,35c-16,12 -39,49 -39,63c0,4 15,-13 33,-37c31,-40 33,-46 24,-82zm-559,105c19,-13 3,-42 -23,-42c-28,0 -38,12 -29,34c7,17 31,21 52,8zm441,-18c3,-16 1,-17 -13,-5c-19,16 -21,34 -3,29c6,-3 14,-13 16,-24zm181,-15c0,-14 -16,-18 -30,-8c-11,6 -12,9 -2,9c9,0 11,7 7,23c-6,21 -6,21 9,3c9,-11 16,-23 16,-27zm-2786,16c-7,-18 7,-20 26,-2c8,6 6,2 -4,-10c-19,-23 -46,-31 -46,-14c0,17 12,41 21,41c4,0 6,-7 3,-15zm323,9c-3,-3 -12,-4 -19,-1c-8,3 -5,6 6,6c11,1 17,-2 13,-5zm243,2c0,-2 3,-11 6,-19c4,-12 -5,-15 -48,-13c-46,1 -54,-2 -63,-21c-12,-28 -35,-30 -35,-4c0,39 10,50 40,45c15,-4 36,-1 47,5c18,10 53,15 53,7zm1670,-16c13,-8 13,-10 -2,-10c-9,0 -23,-3 -32,-6c-11,-4 -16,-1 -16,10c0,18 27,21 50,6zm-2017,-25c22,-31 14,-50 -14,-34c-15,7 -24,7 -35,-2c-21,-17 -19,19 3,43c21,23 24,23 46,-7zm553,0c16,-22 19,-75 4,-75c-5,0 -12,11 -16,24c-3,14 -17,32 -31,42c-19,12 -22,18 -13,24c19,12 41,6 56,-15zm1574,15c0,-5 -4,-10 -10,-10c-5,0 -10,-9 -10,-20c0,-27 -13,-25 -26,5c-9,18 -9,25 0,29c20,8 46,6 46,-4zm285,0c3,-5 1,-10 -4,-10c-6,0 -11,5 -11,10c0,6 2,10 4,10c3,0 8,-4 11,-10zm-2258,-16c-36,-19 -94,-27 -115,-15c-16,9 -16,10 1,16c9,4 29,5 42,3c14,-3 25,-1 25,3c0,5 17,9 38,9l37,-1l-28,-15zm2018,6c3,-5 2,-10 -4,-10c-5,0 -13,5 -16,10c-3,6 -2,10 4,10c5,0 13,-4 16,-10zm45,3c-1,-11 -26,-43 -33,-43c-4,0 -1,11 5,25c10,23 28,35 28,18zm170,-51c0,-11 -3,-12 -14,-2c-8,6 -25,11 -38,10c-40,-4 -42,-1 -18,25l24,25l23,-22c13,-12 23,-28 23,-36zm-1915,38c-3,-5 -10,-10 -16,-10c-5,0 -9,5 -9,10c0,6 7,10 16,10c8,0 12,-4 9,-10zm1799,4c26,-10 18,-22 -14,-20c-16,1 -30,-1 -30,-6c0,-4 -5,-8 -12,-8c-6,0 -3,9 7,20c20,22 25,23 49,14zm-1939,-24c10,-11 14,-20 9,-20c-5,0 -15,9 -22,20c-7,11 -11,20 -9,20c2,0 12,-9 22,-20zm105,16c0,-2 -8,-10 -17,-17c-16,-13 -17,-12 -4,4c13,16 21,21 21,13zm-584,-22c-5,-13 0,-15 28,-11c41,6 73,-23 57,-51c-9,-15 -10,-14 -11,5c0,27 -38,40 -69,23c-17,-9 -22,-8 -27,4c-3,8 0,22 8,30c17,20 22,20 14,0zm462,-20c-4,-3 -12,5 -18,18c-12,22 -12,22 6,6c10,-10 15,-20 12,-24zm1682,26c0,-5 -5,-10 -11,-10c-5,0 -7,5 -4,10c3,6 8,10 11,10c2,0 4,-4 4,-10zm-1865,-20c-19,-21 -35,-26 -35,-12c0,5 10,14 23,20c31,15 32,14 12,-8zm375,0c0,-5 -2,-10 -4,-10c-3,0 -8,5 -11,10c-3,6 -1,10 4,10c6,0 11,-4 11,-10zm1940,-10c0,-5 -2,-10 -4,-10c-3,0 -8,5 -11,10c-3,6 -1,10 4,10c6,0 11,-4 11,-10zm-2410,-50c6,0 10,-10 10,-21c0,-18 -5,-20 -27,-17c-16,3 -37,9 -47,13c-16,7 -18,5 -12,-11c6,-15 5,-17 -5,-6c-21,19 3,37 30,22c12,-6 30,-9 39,-7c15,3 14,5 -3,11c-11,4 -28,12 -38,17c-10,5 -23,7 -29,3c-7,-4 -8,-3 -4,4c4,7 14,12 22,12c8,0 17,7 21,16c5,14 9,12 20,-10c7,-14 18,-26 23,-26zm380,40c8,-5 11,-10 5,-10c-5,0 -21,-3 -34,-7c-16,-4 -22,-3 -18,5c4,5 1,13 -5,15c-7,3 -2,6 12,6c14,0 32,-4 40,-9zm1525,0c-3,-5 -12,-10 -20,-10c-8,0 -17,5 -20,10c-4,6 5,10 20,10c15,0 24,-4 20,-10zm425,-35c9,-10 7,-12 -7,-9c-10,3 -29,0 -43,-6c-24,-10 -24,-10 5,-5l30,5l-24,-14c-19,-10 -29,-11 -42,-3c-17,10 -16,12 4,32c23,22 59,22 77,0zm-2490,0c0,-8 -4,-15 -9,-15c-13,0 -22,16 -14,24c11,11 23,6 23,-9zm320,5c0,-5 -5,-10 -11,-10c-5,0 -7,5 -4,10c3,6 8,10 11,10c2,0 4,-4 4,-10zm145,0c-11,-5 -33,-8 -50,-8c-29,1 -29,1 5,8c49,10 69,10 45,0zm170,-6c58,-11 60,-17 10,-28c-27,-7 -60,-16 -72,-20c-20,-6 -23,-4 -23,22c0,36 9,45 35,37c11,-3 34,-8 50,-11zm1385,-11c0,-29 -14,-43 -38,-36c-29,7 -28,15 6,35c34,22 32,22 32,1zm-82,-12c3,-10 0,-12 -12,-8c-10,4 -24,7 -32,7c-8,0 -14,4 -14,9c0,15 53,7 58,-8zm442,-17c0,-12 7,-27 15,-34c14,-11 13,-14 -4,-26c-14,-11 -19,-25 -18,-56c2,-41 3,-43 40,-49c20,-3 37,-2 37,2c0,5 7,6 15,3c16,-6 31,36 22,61c-11,27 13,26 38,-1c17,-18 25,-38 25,-63c0,-20 -4,-31 -8,-25c-15,23 -50,26 -65,4c-7,-11 -16,-18 -19,-15c-3,3 -11,-1 -18,-10c-9,-11 -9,-15 -1,-15c7,0 9,-5 6,-10c-4,-6 -14,-1 -25,12c-16,21 -22,22 -49,11c-25,-9 -31,-9 -31,2c0,8 5,17 11,20c11,7 3,62 -12,81c-6,7 -1,18 11,29c16,15 19,26 14,49c-3,17 -11,36 -16,43c-7,8 -4,11 11,10c14,-1 21,-8 21,-23zm-2324,-42c-15,-15 -16,-14 -16,9c0,33 11,44 23,23c6,-11 4,-21 -7,-32zm2456,16c-9,-9 -12,-7 -12,12c0,19 3,21 12,12c9,-9 9,-15 0,-24zm88,28c0,-3 -4,-8 -10,-11c-5,-3 -10,-1 -10,4c0,6 5,11 10,11c6,0 10,-2 10,-4zm-1950,-35c0,-4 -35,-8 -77,-8l-78,0l70,7c39,3 73,7 78,8c4,1 7,-2 7,-7zm1914,-30c-9,-10 -26,18 -18,30c5,9 9,8 14,-7c4,-10 6,-21 4,-23zm-2656,3c0,-17 -4,-22 -11,-15c-5,5 -7,17 -4,25c9,23 15,19 15,-10zm315,6c3,-11 1,-18 -4,-14c-5,3 -9,12 -9,20c0,20 7,17 13,-6zm-138,0c3,-5 1,-10 -4,-10c-6,0 -11,5 -11,10c0,6 2,10 4,10c3,0 8,-4 11,-10zm221,-17c-7,-7 -26,7 -26,19c0,6 6,6 15,-2c9,-7 13,-15 11,-17zm374,-8c-7,-9 -15,-13 -18,-10c-3,2 1,11 8,20c7,9 15,13 18,10c3,-2 -1,-11 -8,-20zm-95,-4c-12,-11 -95,-19 -95,-9c0,7 33,14 80,17c14,0 20,-3 15,-8zm-225,-5c0,-3 -4,-8 -10,-11c-5,-3 -10,-1 -10,4c0,6 5,11 10,11c6,0 10,-2 10,-4zm-239,-29c-10,-9 -11,-8 -5,6c3,10 9,15 12,12c3,-3 0,-11 -7,-18zm519,19c0,-2 -7,-7 -16,-10c-8,-3 -12,-2 -9,4c6,10 25,14 25,6zm1656,-11c-10,-7 -15,-18 -11,-24c3,-6 -1,-11 -9,-11c-9,0 -16,4 -16,9c0,14 29,41 43,41c7,0 4,-7 -7,-15zm-46,-25c0,-5 -5,-10 -11,-10c-5,0 -7,5 -4,10c3,6 8,10 11,10c2,0 4,-4 4,-10zm-2220,-45c-17,-32 -24,-25 -15,15c5,23 10,29 18,21c8,-8 7,-18 -3,-36zm300,5c-8,-5 -19,-10 -25,-10c-5,0 -3,5 5,10c8,5 20,10 25,10c6,0 3,-5 -5,-10zm910,6c0,-3 -4,-8 -10,-11c-5,-3 -10,-1 -10,4c0,6 5,11 10,11c6,0 10,-2 10,-4zm-1262,-31c-3,-3 -9,2 -12,12c-6,14 -5,15 5,6c7,-7 10,-15 7,-18zm1892,15c0,-5 -2,-10 -4,-10c-3,0 -8,5 -11,10c-3,6 -1,10 4,10c6,0 11,-4 11,-10zm808,-16c1,-14 -2,-23 -8,-19c-12,7 -14,45 -2,45c4,0 9,-11 10,-26zm-2573,-4c3,-5 2,-10 -4,-10c-5,0 -13,5 -16,10c-3,6 -2,10 4,10c5,0 13,-4 16,-10zm-258,-32c-3,-7 -5,-2 -5,12c0,14 2,19 5,13c2,-7 2,-19 0,-25zm1298,22c3,-5 1,-10 -4,-10c-6,0 -11,5 -11,10c0,6 2,10 4,10c3,0 8,-4 11,-10zm82,-42c-3,-7 -5,-2 -5,12c0,14 2,19 5,13c2,-7 2,-19 0,-25zm-1087,14c0,-14 -31,-52 -42,-52c-6,0 -4,8 5,18c10,10 17,24 17,30c0,7 5,12 10,12c6,0 10,-3 10,-8zm90,-35c0,-18 -36,-87 -46,-87c-2,0 5,19 17,42c17,33 19,46 10,60c-15,25 -14,33 4,18c8,-7 15,-21 15,-33zm1227,-8c13,-24 29,-68 37,-97c13,-53 13,-54 -11,-63c-59,-22 -71,-22 -75,2c-4,32 -22,34 -38,4c-7,-14 -18,-25 -23,-25c-22,0 31,65 61,74c40,11 43,42 7,56c-18,7 -25,17 -25,35c0,30 -9,31 -44,4c-29,-23 -36,-11 -8,13c24,22 75,48 87,44c5,-1 20,-22 32,-47zm-1610,-36c-2,-16 -4,-5 -4,22c0,28 2,40 4,28c2,-13 2,-35 0,-50zm53,36c0,-10 -4,-19 -10,-19c-5,0 -10,12 -10,26c0,14 4,23 10,19c6,-3 10,-15 10,-26zm1285,11c15,-6 25,-13 22,-16c-6,-6 -67,23 -67,32c0,3 4,3 9,0c4,-3 21,-10 36,-16zm1276,3c13,-16 12,-17 -3,-4c-17,13 -22,21 -14,21c2,0 10,-8 17,-17zm-2529,-148c-8,-34 -9,-28 -9,45c0,47 3,90 6,95c10,17 12,-97 3,-140zm78,113c0,-13 -5,-30 -10,-38c-7,-11 -10,-5 -10,23c0,20 5,37 10,37c6,0 10,-10 10,-22zm2560,-19c0,-18 -4,-28 -10,-24c-5,3 -10,20 -10,36c0,18 4,28 10,24c6,-3 10,-20 10,-36zm-2467,-52c-3,-20 -10,-37 -14,-37c-12,0 -11,23 1,56c14,36 21,26 13,-19zm2382,-4c4,-14 2,-23 -4,-23c-6,0 -11,6 -11,14c0,8 -3,23 -6,33c-5,12 -4,15 3,8c6,-5 14,-20 18,-32zm-2479,-30c-3,-26 -13,-57 -21,-69c-8,-13 -14,-42 -13,-66c1,-37 2,-38 5,-10c2,17 9,32 15,32c12,0 2,-48 -14,-68c-6,-7 -17,-11 -25,-8c-10,4 -12,-1 -7,-22c4,-15 11,-32 15,-38c19,-24 -11,-100 -64,-159c-9,-11 -4,31 16,125l12,55l6,-60c6,-55 6,-53 5,25c0,47 3,91 8,99c5,7 15,49 23,93c13,77 27,118 40,118c3,0 3,-21 -1,-47zm2574,-15c0,-15 4,-28 9,-28c4,0 11,-21 14,-47c3,-27 9,-57 13,-68c7,-17 5,-18 -8,-8c-8,7 -15,26 -16,42c0,16 -7,40 -15,53c-8,13 -17,46 -21,73c-5,46 -4,48 9,31c8,-11 15,-32 15,-48zm-1259,-9c-12,-19 -21,-27 -21,-19c0,18 30,64 37,57c2,-3 -5,-20 -16,-38zm-1425,-14c-1,-19 -4,-35 -8,-35c-4,0 -12,-18 -18,-40c-6,-22 -13,-40 -15,-40c-10,0 5,75 15,78c6,2 8,7 5,12c-4,7 13,60 20,60c1,0 1,-16 1,-35zm574,25c0,-5 -10,-10 -22,-9c-22,0 -22,1 -3,9c11,5 21,9 23,9c1,1 2,-3 2,-9zm2217,-42c-3,-8 -6,-5 -6,6c-1,11 2,17 5,13c3,-3 4,-12 1,-19zm-2574,-48c3,-11 1,-20 -4,-20c-5,0 -9,9 -9,20c0,11 2,20 4,20c2,0 6,-9 9,-20zm-18,-81c-11,-26 -14,-28 -10,-9c2,14 5,34 5,45c0,13 3,16 11,8c7,-7 6,-20 -6,-44zm2506,-17c-5,-2 -6,-12 -3,-24c3,-14 1,-19 -6,-14c-7,4 -11,17 -10,29c0,12 -3,31 -7,42c-5,16 -3,15 14,-5c11,-14 16,-26 12,-28zm-2741,23c0,-8 -4,-15 -10,-15c-5,0 -10,7 -10,15c0,8 5,15 10,15c6,0 10,-7 10,-15zm2617,-7c-3,-8 -6,-5 -6,6c-1,11 2,17 5,13c3,-3 4,-12 1,-19zm-2472,-57c-7,-26 -18,-57 -24,-67c-12,-18 -12,-18 -6,1c4,11 11,44 17,72c6,29 14,50 18,48c5,-3 2,-27 -5,-54zm-23,23c-3,-17 -8,-22 -15,-15c-7,7 -6,15 3,26c17,20 18,19 12,-11zm-91,-21c-12,-20 -14,-14 -5,12c4,9 9,14 11,11c3,-2 0,-13 -6,-23zm2735,-8c-4,-14 -11,-23 -16,-20c-6,3 -5,16 2,30c14,31 23,25 14,-10zm-2750,-41c-4,-9 -9,-15 -11,-12c-3,3 -3,13 1,22c4,9 9,15 11,12c3,-3 3,-13 -1,-22zm2777,6c3,-11 1,-20 -4,-20c-5,0 -9,9 -9,20c0,11 2,20 4,20c2,0 6,-9 9,-20zm-398,-20c3,-5 1,-10 -4,-10c-6,0 -11,5 -11,10c0,6 2,10 4,10c3,0 8,-4 11,-10zm365,-16c0,-8 7,-14 15,-14c18,0 35,-39 35,-78l0,-27l-27,27c-27,27 -56,95 -47,110c8,12 24,0 24,-18zm-387,-24c-3,-12 -8,-19 -11,-16c-5,6 5,36 12,36c2,0 2,-9 -1,-20zm-2444,-52c11,-21 19,-38 16,-38c-6,0 -55,77 -55,87c0,12 17,-10 39,-49zm220,-2c-5,-26 -6,-52 -3,-57c3,-5 2,-9 -3,-9c-4,0 -9,-12 -10,-27c0,-16 2,-21 7,-13c5,7 10,8 14,2c3,-5 -1,-13 -10,-16c-13,-5 -14,-9 -4,-21c10,-13 9,-15 -9,-15c-17,0 -21,5 -17,18c2,9 7,42 11,72c6,55 24,124 30,118c2,-2 -1,-25 -6,-52zm991,14c0,-5 -4,-10 -10,-10c-5,0 -10,5 -10,10c0,6 5,10 10,10c6,0 10,-4 10,-10zm120,-10c0,-5 -9,-10 -21,-10c-11,0 -17,5 -14,10c3,6 13,10 21,10c8,0 14,-4 14,-10zm1460,-37c0,-39 -16,-25 -18,15c-2,27 0,33 8,22c5,-8 10,-25 10,-37zm250,-8c0,-5 -5,-3 -10,5c-5,8 -10,20 -10,25c0,6 5,3 10,-5c5,-8 10,-19 10,-25zm-1745,15c7,-12 -29,-12 -65,0c-21,7 -19,8 17,9c23,1 45,-3 48,-9zm-1173,-45c-15,-40 -17,-43 -24,-24c-6,17 -3,28 13,46c13,12 24,23 25,23c2,0 -4,-20 -14,-45zm2768,-24c-1,-25 -1,-25 -15,-7c-19,26 -19,47 0,40c8,-4 15,-18 15,-33zm-100,9c0,-5 -5,-10 -11,-10c-5,0 -7,5 -4,10c3,6 8,10 11,10c2,0 4,-4 4,-10zm-1243,-39c-4,-19 -2,-31 6,-35c9,-3 9,-5 0,-5c-18,-1 -24,15 -17,44c9,35 18,32 11,-4zm40,7c-3,-8 -6,-5 -6,6c-1,11 2,17 5,13c3,-3 4,-12 1,-19zm343,5c12,-13 -14,-146 -30,-151c-9,-3 -11,1 -6,14c4,11 9,31 12,47c2,15 6,41 9,57c4,26 1,30 -18,30c-12,0 -29,5 -37,11c-11,8 -5,9 24,5c22,-3 42,-9 46,-13zm-84,-4c44,-11 65,-34 22,-24c-148,34 -145,33 -105,34c21,1 58,-4 83,-10zm952,-6c-2,-9 -8,-18 -15,-20c-7,-3 -9,3 -6,16c6,25 26,28 21,4zm-1015,-45c10,-17 16,-32 15,-34c-7,-6 -88,9 -88,17c0,4 4,19 9,33c13,32 40,25 64,-16zm1132,-36c-7,-7 -33,62 -27,72c2,5 11,-9 18,-30c7,-21 11,-40 9,-42zm-1248,36c-3,-8 -6,-5 -6,6c-1,11 2,17 5,13c3,-3 4,-12 1,-19zm166,-10c10,-16 14,-28 9,-28c-8,0 -32,43 -32,57c0,7 1,6 23,-29zm57,-9c0,-20 -5,-29 -16,-29c-12,0 -15,6 -10,25c5,18 2,25 -9,25c-8,0 -15,4 -15,9c0,4 11,6 25,3c20,-3 25,-10 25,-33zm-1040,-37c0,-24 -8,-32 -26,-25c-22,8 -17,43 6,43c13,0 20,-7 20,-18zm747,-8c15,-11 43,-45 61,-74c26,-44 32,-65 32,-110c0,-116 -36,-176 -126,-209c-60,-23 -74,-25 -74,-12c0,5 14,11 32,15c49,10 29,14 -32,6c-30,-4 -46,-8 -36,-9c11,0 17,-4 14,-7c-13,-13 -83,11 -115,39c-55,49 -85,103 -90,167c-8,90 34,156 127,200c60,27 166,24 207,-6zm206,9c-7,-2 -21,-2 -30,0c-10,3 -4,5 12,5c17,0 24,-2 18,-5zm207,-33c0,-10 -4,-22 -10,-25c-6,-4 -10,7 -10,25c0,18 4,29 10,25c6,-3 10,-15 10,-25zm-137,3c-7,-2 -21,-2 -30,0c-10,3 -4,5 12,5c17,0 24,-2 18,-5zm907,-93c0,-5 -5,-10 -11,-10c-5,0 -7,5 -4,10c3,6 8,10 11,10c2,0 4,-4 4,-10zm-756,-35c4,-10 -3,-20 -19,-27c-30,-14 -36,-9 -28,20c6,25 38,30 47,7zm-1119,-105c3,-5 1,-10 -4,-10c-6,0 -11,5 -11,10c0,6 2,10 4,10c3,0 8,-4 11,-10zm225,-445c0,-8 -4,-15 -10,-15c-5,0 -10,7 -10,15c0,8 5,15 10,15c6,0 10,-7 10,-15z"/>
   <path fill="#cf610f" id="svg_10" d="m2700,4270c0,-5 5,-10 10,-10c6,0 10,5 10,10c0,6 -4,10 -10,10c-5,0 -10,-4 -10,-10z"/>
   <path fill="#cf610f" id="svg_11" d="m3046,4242c-3,-6 -1,-14 5,-17c15,-10 25,3 12,16c-7,7 -13,7 -17,1z"/>
   <path fill="#cf610f" id="svg_12" d="m2220,4215c0,-8 5,-15 10,-15c6,0 10,7 10,15c0,8 -4,15 -10,15c-5,0 -10,-7 -10,-15z"/>
   <path fill="#cf610f" id="svg_13" d="m2395,4200c-3,-5 1,-10 9,-10c9,0 16,5 16,10c0,6 -4,10 -9,10c-6,0 -13,-4 -16,-10z"/>
   <path fill="#cf610f" id="svg_14" d="m2540,4143c-94,-16 -271,-80 -286,-104c-3,-5 1,-6 9,-3c10,3 16,-3 19,-20c3,-14 1,-23 -3,-20c-5,3 -9,-4 -9,-15c0,-30 -19,-35 -26,-6c-3,14 -11,25 -16,25c-6,0 -5,6 2,15c19,23 0,18 -37,-11c-107,-81 -159,-172 -198,-349c-24,-107 -26,-133 -21,-240c6,-134 12,-186 24,-230l9,-30l16,30c9,17 16,25 17,18c0,-6 -18,-33 -41,-59c-36,-42 -40,-51 -34,-83c8,-45 31,-81 50,-81c8,0 15,-5 15,-11c0,-18 67,-39 125,-39c58,0 135,-30 135,-52c0,-9 -3,-9 -12,0c-19,19 -26,14 -20,-14c7,-36 -13,-23 -23,13c-7,29 -21,43 -44,43c-10,0 -8,-7 8,-24c13,-13 22,-35 21,-48c-3,-37 0,-44 11,-28c9,12 10,12 5,-3c-3,-10 -3,-30 0,-44c6,-22 11,-25 40,-20c19,3 36,2 39,-4c3,-5 -2,-6 -12,-2c-14,5 -16,3 -6,-7c9,-10 24,-11 62,-3c41,8 51,8 51,-3c0,-8 7,-14 15,-14c8,0 15,5 15,11c0,8 4,9 13,0c8,-6 18,-7 22,-3c5,4 5,1 1,-5c-8,-15 -72,-17 -81,-3c-4,6 -15,6 -31,0c-18,-7 -35,-6 -61,5c-40,17 -47,15 -39,-12c4,-11 17,-20 32,-21c34,-3 54,-19 55,-46c1,-13 3,-15 6,-6c2,8 15,23 28,33c20,14 24,15 19,2c-3,-8 -1,-15 5,-15c6,0 11,-8 12,-17c0,-14 2,-14 9,3c5,12 14,25 21,30c7,4 10,3 5,-4c-3,-6 -2,-13 3,-16c5,-4 12,-2 16,3c3,6 12,8 20,4c18,-6 21,37 4,54c-8,8 -4,11 14,10c22,-2 23,-4 14,-30c-11,-33 -8,-38 20,-31c12,4 24,16 26,28c3,16 5,15 6,-7c1,-33 24,-32 29,1c5,34 17,26 20,-14c2,-28 -1,-35 -13,-31c-8,4 -17,2 -20,-3c-4,-6 -15,-10 -25,-10c-14,0 -18,5 -13,18c4,13 1,12 -16,-6c-12,-12 -20,-26 -17,-30c2,-4 1,-14 -5,-22c-6,-11 -9,-4 -9,24c0,22 -3,36 -7,32c-12,-11 -14,-174 -3,-181c6,-4 10,11 10,39c0,72 23,101 100,125c36,11 57,20 48,20c-18,1 -27,41 -10,41c5,0 14,10 20,23c10,20 11,20 10,2c-2,-41 2,-65 12,-65c6,0 10,7 10,15c0,8 5,15 10,15c6,0 10,9 10,20c0,11 -7,20 -15,20c-8,0 -15,5 -15,11c0,5 5,7 11,4c5,-4 31,-10 57,-15c39,-6 41,-8 15,-9c-42,-1 -43,-17 -2,-23c34,-5 43,6 41,51c-4,127 -3,154 8,164c10,9 11,8 6,-7c-12,-35 10,-46 52,-24c27,14 48,17 79,13c53,-8 97,13 119,58c9,17 30,43 46,57c27,23 29,27 17,53c-7,15 -16,27 -21,27c-4,0 -8,6 -8,14c0,7 -11,38 -24,67c-27,60 -43,120 -28,104c5,-5 17,-34 28,-62c19,-57 34,-69 34,-28c0,14 9,52 20,84c33,98 42,152 41,251c-1,126 -14,190 -56,277c-25,50 -51,85 -88,117c-148,130 -184,159 -217,176c-19,9 -49,25 -66,34c-54,28 -146,41 -214,29zm-218,-95c-7,-7 -12,-8 -12,-2c0,14 12,26 19,19c2,-3 -1,-11 -7,-17zm458,-43c7,-9 10,-18 7,-22c-4,-3 -2,-12 5,-20c18,-22 3,-25 -23,-4c-22,18 -22,20 -5,21c18,0 18,1 1,20c-10,11 -13,20 -8,20c6,0 16,-7 23,-15zm-10,-66l35,-31l-38,26c-20,15 -42,24 -49,20c-7,-4 -8,-3 -4,4c11,18 18,15 56,-19zm-205,-7c-3,-3 -11,0 -18,7c-9,10 -8,11 6,5c10,-3 15,-9 12,-12zm45,-12c8,-5 11,-10 5,-10c-5,0 -17,5 -25,10c-8,5 -10,10 -5,10c6,0 17,-5 25,-10zm400,-21c15,-28 5,-23 -15,7c-9,15 -12,23 -6,20c6,-4 16,-16 21,-27zm-91,-23c-2,-2 -13,8 -23,22l-19,27l24,-22c12,-12 21,-24 18,-27zm-259,-18c0,-6 -6,-5 -15,2c-8,7 -15,14 -15,16c0,2 7,1 15,-2c8,-4 15,-11 15,-16zm389,-22c24,-38 28,-59 6,-30c-17,22 -20,12 -5,-17c18,-33 3,-21 -19,16c-11,20 -16,37 -10,40c5,4 7,11 4,16c-4,5 -4,9 -1,9c2,0 14,-15 25,-34zm-559,-26c-20,-13 -33,-13 -25,0c3,6 14,10 23,10c15,0 15,-2 2,-10zm-51,-32c-9,-16 -14,-19 -17,-9c-2,7 2,17 9,22c20,13 21,11 8,-13zm-40,-22c-2,-2 -15,-9 -29,-15c-24,-11 -24,-11 -6,3c16,13 49,24 35,12zm427,-61c-20,-15 -36,-19 -36,-10c0,5 38,23 50,24c3,0 -4,-6 -14,-14zm-506,-29c0,-2 -12,-11 -27,-20l-28,-17l24,20c23,21 31,25 31,17zm170,0c0,-3 -4,-8 -10,-11c-5,-3 -10,-1 -10,4c0,6 5,11 10,11c6,0 10,-2 10,-4zm-271,-10c-2,-2 -15,-9 -29,-15c-24,-11 -24,-11 -6,3c16,13 49,24 35,12zm454,-92c-11,-17 -19,-22 -21,-14c-3,7 3,19 14,27c26,19 27,17 7,-13zm-613,-54c0,-5 -4,-10 -10,-10c-5,0 -10,5 -10,10c0,6 5,10 10,10c6,0 10,-4 10,-10zm370,-45c13,-14 21,-25 18,-25c-2,0 -15,11 -28,25c-13,14 -21,25 -18,25c2,0 15,-11 28,-25zm144,-16c-6,-11 -24,-2 -24,11c0,5 7,7 15,4c8,-4 12,-10 9,-15zm-414,1c0,-5 -2,-10 -4,-10c-3,0 -8,5 -11,10c-3,6 -1,10 4,10c6,0 11,-4 11,-10zm221,-1c29,-15 69,-113 69,-169c0,-54 -14,-70 -102,-120c-32,-17 -61,-36 -64,-41c-3,-5 -9,-7 -14,-4c-13,8 -33,-24 -27,-45c3,-11 1,-20 -4,-20c-5,0 -9,11 -9,25c0,19 -6,25 -32,30c-66,13 -96,58 -104,158c-9,99 9,137 79,172c40,19 66,25 120,25c37,0 77,-5 88,-11zm755,-7c-10,-2 -22,0 -28,6c-6,6 0,7 19,4c21,-5 23,-7 9,-10zm-277,-5c9,-8 38,-22 64,-31c86,-32 105,-92 65,-211c-23,-73 -49,-95 -109,-95c-41,0 -99,21 -99,35c0,6 -15,26 -34,44c-46,45 -60,81 -50,128c4,21 8,44 7,51c-1,7 16,31 38,53c41,42 87,52 118,26zm-319,-11c0,-2 -7,-6 -15,-10c-8,-3 -15,-1 -15,4c0,6 7,10 15,10c8,0 15,-2 15,-4zm60,-6c0,-5 -4,-10 -10,-10c-5,0 -10,5 -10,10c0,6 5,10 10,10c6,0 10,-4 10,-10zm-24,-38c-4,-3 -14,2 -24,12c-16,18 -16,18 6,6c13,-6 21,-14 18,-18zm469,-23c17,-32 19,-53 5,-44c-5,3 -10,13 -10,22c0,9 -10,27 -22,40c-18,19 -19,23 -5,17c10,-3 24,-19 32,-35zm-414,4c13,-16 12,-17 -3,-4c-17,13 -22,21 -14,21c2,0 10,-8 17,-17zm-14,-125c-3,-7 -5,-2 -5,12c0,14 2,19 5,13c2,-7 2,-19 0,-25zm-114,-3c-3,-9 -8,-14 -10,-11c-3,3 -2,9 2,15c9,16 15,13 8,-4zm-16,-57c-3,-7 -5,-2 -5,12c0,14 2,19 5,13c2,-7 2,-19 0,-25zm100,-20c11,-13 24,-34 28,-48c4,-14 23,-51 42,-82c40,-64 39,-93 -1,-133c-29,-29 -59,-24 -89,16c-11,16 -24,29 -28,29c-5,0 -24,-16 -43,-36c-21,-22 -37,-31 -41,-24c-4,6 -14,10 -23,9c-30,-3 -42,1 -42,12c0,5 4,8 9,5c5,-4 7,3 4,14c-11,44 110,260 146,260c10,0 27,-10 38,-22zm-158,-15c-6,-10 -31,-28 -56,-39c-50,-24 -49,-22 15,27c51,39 60,42 41,12zm369,-72c45,-24 80,-46 78,-48c-2,-3 -38,14 -80,37c-72,40 -116,79 -116,104c0,6 8,-3 18,-19c12,-19 49,-46 100,-74zm272,1c0,-15 -2,-15 -10,-2c-13,20 -13,33 0,25c6,-3 10,-14 10,-23zm-63,-4c-3,-8 -6,-5 -6,6c-1,11 2,17 5,13c3,-3 4,-12 1,-19zm-931,-33c9,-40 -4,-27 -16,15c-6,20 -6,30 -1,24c5,-5 13,-22 17,-39zm253,11c16,-12 41,-68 41,-88c-1,-7 -11,7 -23,32c-12,25 -32,50 -45,56c-12,6 -26,15 -30,19c-10,11 41,-6 57,-19zm104,7c-8,-23 -33,-60 -33,-50c0,11 29,67 35,67c2,0 2,-8 -2,-17zm-213,-3c0,-5 -8,-10 -17,-10c-15,0 -16,2 -3,10c19,12 20,12 20,0zm480,-10c6,-11 8,-20 6,-20c-3,0 -10,9 -16,20c-6,11 -8,20 -6,20c3,0 10,-9 16,-20zm340,11c0,-14 -40,-104 -44,-100c-7,6 28,109 37,109c4,0 7,-4 7,-9zm-975,-50c25,-28 26,-32 8,-22c-21,11 -43,40 -43,57c0,4 1,5 3,3c1,-2 16,-19 32,-38zm745,2c-8,-3 -25,-17 -37,-31c-13,-15 -23,-22 -23,-16c0,17 40,54 58,53c14,0 14,-2 2,-6zm210,-78c-7,-8 -20,-15 -29,-15c-11,1 -8,5 9,15c32,18 35,18 20,0zm-130,-29c0,-2 -7,-7 -16,-10c-8,-3 -12,-2 -9,4c6,10 25,14 25,6zm-517,-61c-3,-9 -8,-14 -10,-11c-3,3 -2,9 2,15c9,16 15,13 8,-4zm302,-17c6,-6 -1,-7 -20,-2c-46,10 -66,25 -25,18c19,-4 40,-11 45,-16zm-345,2c0,-5 -4,-10 -10,-10c-5,0 -10,5 -10,10c0,6 5,10 10,10c6,0 10,-4 10,-10zm334,-36c3,-8 2,-12 -4,-9c-6,3 -10,10 -10,16c0,14 7,11 14,-7zm-307,-30c-3,-3 -12,-4 -19,-1c-8,3 -5,6 6,6c11,1 17,-2 13,-5zm227,-23c4,-5 -3,-7 -14,-4c-23,6 -26,13 -6,13c8,0 17,-4 20,-9zm41,-1c3,-5 1,-10 -4,-10c-6,0 -11,5 -11,10c0,6 2,10 4,10c3,0 8,-4 11,-10z"/>
   <path fill="#cf610f" id="svg_15" d="m2980,4105c0,-9 5,-15 11,-13c6,2 11,8 11,13c0,5 -5,11 -11,13c-6,2 -11,-4 -11,-13z"/>
   <path fill="#cf610f" id="svg_16" d="m2170,4070c0,-5 7,-10 15,-10c8,0 15,5 15,10c0,6 -7,10 -15,10c-8,0 -15,-4 -15,-10z"/>
   <path fill="#cf610f" id="svg_17" d="m3235,4010c3,-5 8,-10 11,-10c2,0 4,5 4,10c0,6 -5,10 -11,10c-5,0 -7,-4 -4,-10z"/>
   <path fill="#cf610f" id="svg_18" d="m3220,3950c0,-5 5,-10 10,-10c6,0 10,5 10,10c0,6 -4,10 -10,10c-5,0 -10,-4 -10,-10z"/>
   <path fill="#cf610f" id="svg_19" d="m3448,3894c-5,-4 -8,-19 -8,-34c0,-14 -7,-48 -16,-74c-18,-51 -58,-85 -104,-87c-21,-1 -19,-2 10,-11c72,-20 110,-84 110,-185c0,-27 3,-53 7,-57c4,-4 6,-25 4,-48c-1,-22 1,-38 6,-35c5,3 10,32 11,64c6,143 40,230 100,248c43,12 40,22 -9,30c-22,4 -52,17 -66,29c-23,20 -27,34 -32,95c-3,40 -9,69 -13,65zm24,-161c7,-9 28,-22 46,-30l34,-14l-26,-24c-29,-27 -56,-86 -56,-124c0,-14 -5,-33 -10,-41c-7,-11 -10,-1 -10,36c0,38 -7,61 -30,97c-16,26 -37,50 -46,54c-13,5 -10,10 15,25c17,11 36,35 43,54l13,35l7,-26c3,-14 13,-33 20,-42z"/>
   <path fill="#cf610f" id="svg_20" d="m3416,3721l-28,-29l22,-12c12,-6 30,-30 40,-52l18,-40l7,31c4,18 15,37 26,44c25,16 24,24 -6,31c-13,3 -30,18 -38,31l-13,25l-28,-29zm47,-23c20,-18 23,-26 15,-44c-10,-22 -11,-22 -41,13c-25,28 -28,36 -16,44c8,5 15,9 16,9c1,0 12,-10 26,-22z"/>
   <path fill="#cf610f" id="svg_21" d="m3440,3680c0,-5 5,-10 10,-10c6,0 10,5 10,10c0,6 -4,10 -10,10c-5,0 -10,-4 -10,-10z"/>
   <path fill="#cf610f" id="svg_22" d="m1572,3859c2,-6 8,-10 13,-10c5,0 11,4 13,10c2,6 -4,11 -13,11c-9,0 -15,-5 -13,-11z"/>
   <path fill="#cf610f" id="svg_23" d="m3630,3856c0,-9 5,-16 10,-16c6,0 10,4 10,9c0,6 -4,13 -10,16c-5,3 -10,-1 -10,-9z"/>
   <path fill="#cf610f" id="svg_24" d="m1380,3765c0,-8 5,-15 10,-15c6,0 10,7 10,15c0,8 -4,15 -10,15c-5,0 -10,-7 -10,-15z"/>
   <path fill="#cf610f" id="svg_25" d="m1715,3739c-10,-15 3,-25 16,-12c7,7 7,13 1,17c-6,3 -14,1 -17,-5z"/>
   <path fill="#cf610f" id="svg_26" d="m3750,3699c0,-5 5,-7 10,-4c6,3 10,8 10,11c0,2 -4,4 -10,4c-5,0 -10,-5 -10,-11z"/>
   <path fill="#cf610f" id="svg_27" d="m3330,3635c0,-9 5,-15 11,-13c6,2 11,8 11,13c0,5 -5,11 -11,13c-6,2 -11,-4 -11,-13z"/>
   <path fill="#cf610f" id="svg_28" d="m1515,3580c-11,-5 -35,-25 -54,-44c-19,-20 -38,-36 -42,-36c-20,0 -7,-19 22,-30l31,-13l-38,-33c-22,-18 -36,-35 -32,-39c4,-5 24,8 45,26c36,33 41,34 111,33c70,-1 75,-3 111,-38c51,-50 74,-46 26,5c-22,23 -35,43 -29,46c6,2 20,10 30,17c18,13 18,15 2,33c-13,14 -15,22 -7,30c8,8 7,13 -2,19c-7,4 -15,2 -17,-5c-2,-7 -13,-3 -27,14c-19,19 -33,25 -67,24c-24,0 -52,-4 -63,-9zm10,-60c3,-5 2,-10 -4,-10c-5,0 -18,-3 -28,-7c-16,-6 -16,-5 -4,10c15,19 27,22 36,7zm109,1c3,-4 -8,-8 -23,-7c-16,1 -27,4 -24,9c6,10 41,9 47,-2zm-67,-7c-3,-3 -12,-4 -19,-1c-8,3 -5,6 6,6c11,1 17,-2 13,-5zm68,-29c-33,-15 -122,-20 -152,-7c-11,4 15,9 67,13c47,3 92,6 100,6c8,1 2,-5 -15,-12z"/>
   <path fill="#cf610f" id="svg_29" d="m3875,3570c-3,-5 -15,-10 -27,-10c-13,0 -18,-5 -15,-14c3,-8 -1,-17 -9,-20c-8,-3 -14,-11 -14,-18c0,-9 3,-9 12,0c7,7 23,12 36,12c15,0 22,5 19,13c-2,6 2,20 11,30c9,10 10,17 4,17c-6,0 -14,-4 -17,-10z"/>
   <path fill="#cf610f" id="svg_30" d="m3540,3535c0,-8 5,-15 10,-15c6,0 10,7 10,15c0,8 -4,15 -10,15c-5,0 -10,-7 -10,-15z"/>
   <path fill="#cf610f" id="svg_31" d="m1234,3485c-10,-16 -23,-24 -32,-20c-10,4 -12,0 -8,-10c3,-9 0,-18 -7,-20c-6,-3 -13,-17 -14,-32l-1,-26l29,34c16,19 29,38 29,43c0,5 7,18 17,28c9,10 14,21 10,24c-3,3 -13,-6 -23,-21z"/>
   <path fill="#cf610f" id="svg_32" d="m3760,3420c0,-5 5,-10 10,-10c6,0 10,5 10,10c0,6 -4,10 -10,10c-5,0 -10,-4 -10,-10z"/>
   <path fill="#cf610f" id="svg_33" d="m1485,3389c-22,-41 -13,-48 14,-11c23,33 26,42 11,42c-5,0 -17,-14 -25,-31z"/>
   <path fill="#cf610f" id="svg_34" d="m3800,3400c0,-5 4,-10 9,-10c6,0 13,5 16,10c3,6 -1,10 -9,10c-9,0 -16,-4 -16,-10z"/>
   <path fill="#cf610f" id="svg_35" d="m4035,3400c-3,-5 -1,-10 4,-10c6,0 11,5 11,10c0,6 -2,10 -4,10c-3,0 -8,-4 -11,-10z"/>
   <path fill="#cf610f" id="svg_36" d="m1630,3383c0,-16 56,-80 64,-72c3,3 -10,23 -29,45c-19,21 -34,33 -35,27z"/>
   <path fill="#cf610f" id="svg_37" d="m3232,3378c6,-18 28,-21 28,-4c0,9 -7,16 -16,16c-9,0 -14,-5 -12,-12z"/>
   <path fill="#cf610f" id="svg_38" d="m1574,3326c1,-40 -4,-59 -18,-75c-11,-12 -14,-21 -8,-21c6,0 15,-12 20,-27c9,-25 11,-25 11,-6c1,12 6,25 11,28c6,4 7,12 1,23c-5,9 -6,25 -1,36c8,25 1,96 -10,96c-4,0 -7,-24 -6,-54zm6,-86c0,-5 -5,-10 -11,-10c-5,0 -7,5 -4,10c3,6 8,10 11,10c2,0 4,-4 4,-10z"/>
   <path fill="#cf610f" id="svg_39" d="m1300,3260c0,-5 5,-10 10,-10c6,0 10,5 10,10c0,6 -4,10 -10,10c-5,0 -10,-4 -10,-10z"/>
   <path fill="#cf610f" id="svg_40" d="m3435,3230c-3,-5 1,-10 9,-10c9,0 16,5 16,10c0,6 -4,10 -9,10c-6,0 -13,-4 -16,-10z"/>
   <path fill="#cf610f" id="svg_41" d="m4116,3175c-3,-13 -16,-29 -27,-36l-21,-11l21,-14c12,-9 21,-25 21,-36c0,-20 13,-17 16,3c1,5 2,14 3,19c0,6 8,10 16,10c19,0 19,14 0,30c-9,7 -13,21 -10,31c3,9 2,20 -4,23c-5,3 -12,-5 -15,-19zm19,-44c7,-12 -12,-24 -25,-16c-11,7 -4,25 10,25c5,0 11,-4 15,-9z"/>
   <path fill="#cf610f" id="svg_42" d="m1417,3116c-7,-16 1,-26 20,-26c7,0 13,9 13,20c0,23 -25,27 -33,6z"/>
   <path fill="#cf610f" id="svg_43" d="m990,3109c0,-5 5,-7 10,-4c6,3 10,8 10,11c0,2 -4,4 -10,4c-5,0 -10,-5 -10,-11z"/>
   <path fill="#cf610f" id="svg_44" d="m1085,3110c-7,-11 21,-54 54,-84c12,-11 21,-27 21,-37c0,-25 10,-28 59,-22c40,5 42,7 36,32c-17,67 -145,151 -170,111zm145,-93c-3,-2 -20,15 -39,37l-35,41l39,-37c22,-21 37,-39 35,-41z"/>
   <path fill="#cf610f" id="svg_45" d="m3385,3030c3,-5 8,-10 11,-10c2,0 4,5 4,10c0,6 -5,10 -11,10c-5,0 -7,-4 -4,-10z"/>
   <path fill="#cf610f" id="svg_46" d="m3464,3003c-2,-25 10,-22 25,5c7,14 5,18 -7,18c-11,0 -18,-9 -18,-23z"/>
   <path fill="#cf610f" id="svg_47" d="m3520,3010c0,-5 5,-10 10,-10c6,0 10,5 10,10c0,6 -4,10 -10,10c-5,0 -10,-4 -10,-10z"/>
   <path fill="#cf610f" id="svg_48" d="m1560,2979c0,-5 5,-7 10,-4c6,3 10,8 10,11c0,2 -4,4 -10,4c-5,0 -10,-5 -10,-11z"/>
   <path fill="#cf610f" id="svg_49" d="m3391,2966c-14,-17 -8,-46 9,-46c16,0 23,26 13,45c-9,15 -11,15 -22,1z"/>
   <path fill="#cf610f" id="svg_50" d="m1185,2946c-17,-12 -17,-17 -6,-58c10,-35 10,-51 2,-67c-7,-11 -8,-21 -4,-22c4,-1 26,-2 48,-3c22,-1 48,-6 58,-10c16,-7 16,-5 7,20c-6,16 -11,51 -10,79c1,27 1,56 1,63c-1,17 -72,16 -96,-2zm15,-37c0,-6 -4,-7 -10,-4c-5,3 -10,11 -10,16c0,6 5,7 10,4c6,-3 10,-11 10,-16zm44,-22c-3,-8 0,-26 5,-40c7,-17 7,-27 1,-27c-6,0 -10,4 -10,9c0,5 -3,23 -6,40c-4,20 -2,31 4,31c6,0 9,-6 6,-13z"/>
   <path fill="#cf610f" id="svg_51" d="m1685,2929c-9,-26 10,-48 26,-32c12,12 3,53 -11,53c-5,0 -12,-9 -15,-21zm20,-9c3,-5 1,-10 -4,-10c-6,0 -11,5 -11,10c0,6 2,10 4,10c3,0 8,-4 11,-10z"/>
   <path fill="#cf610f" id="svg_52" d="m2040,2911c0,-10 14,-51 30,-91c18,-44 30,-91 30,-118c0,-85 21,-174 46,-197c13,-12 24,-32 24,-43c0,-58 90,-212 119,-205c5,1 8,-5 7,-14c0,-9 5,-18 13,-21c9,-3 11,0 6,8c-5,8 -4,11 3,6c6,-4 8,-14 5,-23c-4,-10 -2,-14 4,-10c6,4 17,0 24,-9c24,-29 64,-41 154,-47c66,-4 99,-2 124,9c18,8 43,14 55,14c11,0 35,15 52,34c17,18 37,37 45,42c26,16 75,88 106,156c17,36 39,75 50,85c10,10 19,25 20,33c2,8 7,38 13,65c5,28 12,71 15,96c4,28 20,70 41,104c39,66 52,105 34,105c-17,0 -37,-23 -33,-37c3,-8 -7,-6 -29,4c-42,22 -89,20 -130,-4c-46,-27 -48,-50 -4,-55c29,-3 37,0 51,25c21,35 29,30 14,-9c-6,-16 -12,-47 -14,-68c-3,-28 -13,-49 -34,-70c-17,-17 -31,-26 -31,-20c0,6 11,21 25,34c14,13 25,28 25,34c0,6 -15,-7 -32,-29c-35,-42 -57,-92 -50,-116c3,-11 2,-12 -6,0c-14,19 -24,-2 -16,-34c3,-14 10,-25 15,-25c4,0 5,-10 0,-21c-9,-26 -101,-119 -117,-119c-6,0 -17,-7 -24,-15c-7,-8 -16,-13 -20,-10c-3,2 -17,-3 -30,-12c-15,-11 -39,-16 -65,-14c-48,3 -48,3 -47,40c0,24 -3,28 -19,24c-23,-6 -24,-21 -5,-42c18,-20 7,-44 -14,-31c-11,7 -12,10 -2,10c7,0 11,4 7,10c-3,5 -12,7 -20,4c-7,-3 -23,4 -35,16c-14,14 -28,19 -41,15c-14,-5 -28,1 -46,19c-14,14 -29,26 -33,26c-11,0 -57,71 -65,100c-5,17 -4,22 3,15c5,-5 12,-19 14,-30c4,-18 6,-17 16,8c6,15 18,27 27,27c18,0 18,2 4,34c-10,22 -15,24 -33,14c-21,-11 -21,-11 -2,11c26,29 13,38 -14,9c-18,-18 -20,-19 -13,-4c8,15 4,34 -21,86c-18,37 -43,81 -55,99c-13,17 -25,50 -28,73c-5,34 -11,42 -39,54c-44,19 -54,18 -54,-5zm927,-213c-3,-8 -6,-5 -6,6c-1,11 2,17 5,13c3,-3 4,-12 1,-19zm-4,-48c-7,-28 -13,-25 -13,6c0,14 4,23 9,20c5,-3 7,-15 4,-26zm-133,-230c-36,-50 -121,-140 -133,-140c-7,0 6,17 28,38c22,20 57,58 78,85c42,52 60,64 27,17zm-562,-35c-3,-3 -9,2 -12,12c-6,14 -5,15 5,6c7,-7 10,-15 7,-18zm400,-75c7,-11 9,-20 4,-20c-4,0 -13,9 -20,20c-7,11 -9,20 -4,20c4,0 13,-9 20,-20zm-148,-31c0,-11 -4,-17 -10,-14c-5,3 -10,13 -10,21c0,8 5,14 10,14c6,0 10,-9 10,-21zm-88,-46c20,-24 -7,-12 -42,19l-35,31l33,-19c19,-11 38,-25 44,-31zm215,37c8,0 13,-5 11,-11c-2,-6 -7,-10 -11,-10c-3,0 -20,-4 -37,-9c-23,-7 -34,-5 -47,8c-16,16 -15,17 13,23c16,4 35,5 42,3c8,-2 20,-4 29,-4zm-117,-70c0,-5 -2,-10 -4,-10c-3,0 -8,5 -11,10c-3,6 -1,10 4,10c6,0 11,-4 11,-10zm40,0c0,-5 -7,-10 -16,-10c-8,0 -12,5 -9,10c3,6 10,10 16,10c5,0 9,-4 9,-10z"/>
   <path fill="#cf610f" id="svg_53" d="m4194,2899c30,-35 33,-49 11,-49c-8,0 -15,-7 -15,-15c0,-20 26,-19 34,1c5,13 9,14 21,4c14,-11 14,-10 6,13c-6,15 -8,35 -5,44c5,17 5,17 -9,0c-14,-16 -15,-16 -31,8c-9,14 -21,25 -27,25c-6,0 1,-14 15,-31z"/>
   <path fill="#cf610f" id="svg_54" d="m3980,2909c0,-5 5,-7 10,-4c6,3 10,8 10,11c0,2 -4,4 -10,4c-5,0 -10,-5 -10,-11z"/>
   <path fill="#cf610f" id="svg_55" d="m905,2890c-12,-13 -25,-18 -38,-14c-16,5 -19,3 -13,-12c4,-10 2,-21 -5,-25c-14,-8 -5,-25 22,-39c18,-10 19,-9 13,14c-4,16 -2,26 5,26c6,0 11,5 11,12c0,6 7,20 17,30c9,10 14,20 11,23c-3,3 -13,-4 -23,-15z"/>
   <path fill="#cf610f" id="svg_56" d="m4030,2870c0,-5 5,-10 10,-10c6,0 10,5 10,10c0,6 -4,10 -10,10c-5,0 -10,-4 -10,-10z"/>
   <path fill="#cf610f" id="svg_57" d="m3446,2861c-4,-7 -5,-15 -2,-18c9,-9 19,4 14,18c-4,11 -6,11 -12,0z"/>
   <path fill="#cf610f" id="svg_58" d="m3540,2860c0,-5 5,-10 10,-10c6,0 10,5 10,10c0,6 -4,10 -10,10c-5,0 -10,-4 -10,-10z"/>
   <path fill="#cf610f" id="svg_59" d="m1900,2840c0,-5 5,-10 10,-10c6,0 10,5 10,10c0,6 -4,10 -10,10c-5,0 -10,-4 -10,-10z"/>
   <path fill="#cf610f" id="svg_60" d="m835,2800c-3,-5 -1,-10 4,-10c6,0 11,5 11,10c0,6 -2,10 -4,10c-3,0 -8,-4 -11,-10z"/>
   <path fill="#cf610f" id="svg_61" d="m1465,2790c-3,-5 -1,-10 4,-10c6,0 11,5 11,10c0,6 -2,10 -4,10c-3,0 -8,-4 -11,-10z"/>
   <path fill="#cf610f" id="svg_62" d="m1765,2763c-56,-24 -101,-37 -148,-40c-37,-3 -70,-10 -73,-14c-3,-5 8,-23 25,-40c24,-23 30,-36 25,-55c-8,-30 0,-30 67,0c56,24 79,24 79,0c0,-8 5,-14 10,-14c17,0 11,27 -7,35c-26,10 -1,21 66,29c30,4 63,12 74,18c18,9 18,11 4,19c-11,7 -14,18 -10,43c9,57 -17,61 -112,19zm79,8c8,-12 -21,-34 -34,-26c-5,3 -10,2 -10,-3c0,-10 -30,-22 -67,-28c-40,-5 -25,14 25,32c26,9 51,21 57,26c12,10 22,10 29,-1zm-7,-87c-3,-3 -12,-4 -19,-1c-8,3 -5,6 6,6c11,1 17,-2 13,-5zm-77,-11c-8,-3 -32,-14 -52,-25c-21,-10 -38,-16 -38,-13c0,8 74,44 90,44c13,-1 13,-1 0,-6zm-142,-28c-3,-3 -9,2 -12,12c-6,14 -5,15 5,6c7,-7 10,-15 7,-18z"/>
   <path fill="#cf610f" id="svg_63" d="m3290,2781c0,-5 7,-11 15,-15c8,-3 15,-1 15,3c0,5 -7,11 -15,15c-8,3 -15,1 -15,-3z"/>
   <path fill="#cf610f" id="svg_64" d="m1035,2730c3,-5 8,-10 11,-10c2,0 4,5 4,10c0,6 -5,10 -11,10c-5,0 -7,-4 -4,-10z"/>
   <path fill="#cf610f" id="svg_65" d="m4097,2723c-4,-3 -17,-7 -30,-9c-12,-1 -25,-3 -29,-3c-4,-1 -5,-8 -2,-16c4,-8 1,-15 -6,-15c-6,0 -8,-5 -5,-11c5,-7 13,-5 24,5c10,9 20,15 22,13c2,-2 15,7 28,20c13,13 20,23 14,23c-5,0 -13,-3 -16,-7z"/>
   <path fill="#cf610f" id="svg_66" d="m1900,2664c0,-8 5,-12 10,-9c6,4 8,11 5,16c-9,14 -15,11 -15,-7z"/>
   <path fill="#cf610f" id="svg_67" d="m4124,2623c-8,-52 -12,-60 -42,-75c-18,-9 -29,-19 -23,-22c26,-17 80,40 82,84c0,14 3,19 6,13c11,-29 19,-10 9,22c-6,19 -14,35 -17,35c-4,0 -11,-26 -15,-57z"/>
   <path fill="#cf610f" id="svg_68" d="m3210,2661c0,-6 6,-12 13,-12c45,-5 69,-4 73,3c3,4 -8,8 -25,8c-16,0 -36,3 -45,6c-9,3 -16,1 -16,-5z"/>
   <path fill="#cf610f" id="svg_69" d="m1467,2620c-25,-22 -49,-40 -54,-40c-13,0 -58,-49 -51,-56c10,-10 63,-7 85,5c27,14 36,14 28,1c-3,-5 -2,-10 4,-10c14,0 23,18 11,22c-16,5 12,38 35,43c11,2 23,4 28,4c4,1 7,15 7,32c0,16 -4,28 -9,24c-5,-3 -12,-1 -16,5c-10,16 -20,12 -68,-30z"/>
   <path fill="#cf610f" id="svg_70" d="m935,2594c-11,-32 -31,-65 -47,-79l-29,-24l25,-7c40,-10 57,-38 67,-110c12,-83 19,-94 19,-28c0,80 15,117 57,142c29,16 33,22 18,22c-41,0 -63,27 -70,85c-4,30 -10,55 -14,55c-4,0 -15,-25 -26,-56zm61,-81l24,-15l-25,-20c-14,-11 -25,-26 -25,-34c0,-8 -4,-14 -10,-14c-5,0 -10,6 -10,13c0,8 -11,24 -25,37c-22,21 -23,25 -10,40c8,9 20,32 27,51l12,34l9,-38c5,-22 19,-45 33,-54z"/>
   <path fill="#cf610f" id="svg_71" d="m937,2518c-4,-14 0,-29 10,-40c15,-17 17,-17 30,2c12,17 11,22 -7,40c-25,25 -26,25 -33,-2zm31,-27c3,-8 -1,-12 -9,-9c-7,2 -15,10 -17,17c-3,8 1,12 9,9c7,-2 15,-10 17,-17z"/>
   <path fill="#cf610f" id="svg_72" d="m1050,2640c0,-5 5,-10 10,-10c6,0 10,5 10,10c0,6 -4,10 -10,10c-5,0 -10,-4 -10,-10z"/>
   <path fill="#cf610f" id="svg_73" d="m3970,2640c0,-5 5,-10 10,-10c6,0 10,5 10,10c0,6 -4,10 -10,10c-5,0 -10,-4 -10,-10z"/>
   <path fill="#cf610f" id="svg_74" d="m3350,2622c0,-12 3,-12 15,-2c8,7 15,13 15,15c0,1 -7,2 -15,2c-8,0 -15,-7 -15,-15z"/>
   <path fill="#cf610f" id="svg_75" d="m4220,2615c0,-8 7,-15 15,-15c9,0 12,6 9,15c-4,8 -10,15 -15,15c-5,0 -9,-7 -9,-15z"/>
   <path fill="#cf610f" id="svg_76" d="m2770,2585c-8,-9 -8,-15 -2,-15c12,0 26,19 19,26c-2,2 -10,-2 -17,-11z"/>
   <path fill="#cf610f" id="svg_77" d="m2716,2544c-8,-21 -8,-21 13,-27c24,-6 37,29 14,37c-20,8 -20,8 -27,-10z"/>
   <path fill="#cf610f" id="svg_78" d="m4150,2540c0,-5 5,-10 10,-10c6,0 10,5 10,10c0,6 -4,10 -10,10c-5,0 -10,-4 -10,-10z"/>
   <path fill="#cf610f" id="svg_79" d="m2767,2533c-4,-3 -7,-14 -7,-23c0,-20 -27,-46 -37,-36c-4,4 -1,11 7,16c12,8 12,10 -3,16c-9,3 -25,3 -34,0c-14,-6 -14,-8 5,-22c12,-8 22,-26 22,-40c0,-13 5,-24 10,-24c6,0 10,6 10,14c0,7 9,16 19,19c16,4 20,13 19,46c0,43 -1,45 -11,34z"/>
   <path fill="#cf610f" id="svg_80" d="m2287,2523c-4,-3 -2,-12 4,-20c9,-10 15,-10 25,-2c8,6 14,15 14,20c0,10 -34,12 -43,2z"/>
   <path fill="#cf610f" id="svg_81" d="m4090,2505c7,-8 17,-15 22,-15c6,0 5,7 -2,15c-7,8 -17,15 -22,15c-6,0 -5,-7 2,-15z"/>
   <path fill="#cf610f" id="svg_82" d="m2325,2500c-9,-14 19,-40 34,-31c6,4 9,15 5,24c-7,19 -29,23 -39,7z"/>
   <path fill="#cf610f" id="svg_83" d="m2270,2485c0,-19 23,-46 36,-41c8,3 14,-1 14,-9c0,-22 16,-18 17,4c1,11 -4,24 -10,29c-16,13 -57,25 -57,17z"/>
   <path fill="#cf610f" id="svg_84" d="m2996,2482c-3,-6 -1,-14 5,-17c15,-10 25,3 12,16c-7,7 -13,7 -17,1z"/>
   <path fill="#cf610f" id="svg_85" d="m2649,2454c-10,-12 -10,-17 0,-23c8,-5 10,-18 5,-36c-5,-21 -4,-26 7,-23c8,3 13,15 12,27c-3,25 14,28 20,4c4,-17 4,-17 12,0c20,47 -24,89 -56,51zm36,-14c-3,-5 -10,-10 -16,-10c-5,0 -9,5 -9,10c0,6 7,10 16,10c8,0 12,-4 9,-10z"/>
   <path fill="#cf610f" id="svg_86" d="m2347,2428c-3,-12 -4,-25 -1,-30c9,-15 42,-8 47,10c4,14 5,15 6,1c1,-22 48,-53 54,-36c5,16 -39,57 -63,57c-10,0 -21,-6 -24,-12c-3,-7 -3,-3 0,10c3,12 1,22 -4,22c-5,0 -12,-10 -15,-22z"/>
   <path fill="#cf610f" id="svg_87" d="m2617,2413c-4,-3 -7,-16 -7,-28c0,-11 -5,-26 -12,-33c-7,-7 -8,-12 -4,-12c15,0 46,42 46,62c0,18 -11,24 -23,11z"/>
   <path fill="#cf610f" id="svg_88" d="m3045,2400c-4,-6 -11,-7 -17,-4c-7,5 -9,2 -5,-8c3,-9 2,-19 -3,-24c-5,-5 -1,-15 7,-23c14,-12 15,-12 11,0c-3,8 4,19 16,26c12,7 16,12 9,13c-7,0 -10,7 -7,15c7,17 -1,20 -11,5z"/>
   <path fill="#cf610f" id="svg_89" d="m2037,2370c3,-11 0,-20 -6,-20c-8,0 -8,-4 1,-14c7,-8 16,-12 21,-9c4,2 7,-4 8,-14c0,-16 1,-16 9,2c5,12 9,14 9,6c1,-8 4,-11 7,-8c4,4 1,14 -6,23c-12,13 -11,17 1,25c11,7 11,9 -3,9c-10,0 -18,5 -18,10c0,6 -6,10 -14,10c-9,0 -12,-7 -9,-20z"/>
   <path fill="#cf610f" id="svg_90" d="m2524,2375c-15,-39 47,-47 65,-8c9,20 8,23 -9,23c-11,0 -20,-7 -20,-15c0,-8 -5,-15 -11,-15c-6,0 -9,7 -5,15c3,8 1,15 -5,15c-5,0 -12,-7 -15,-15z"/>
   <path fill="#cf610f" id="svg_91" d="m825,2370c-4,-6 -3,-16 3,-22c6,-6 12,-6 17,2c4,6 3,16 -3,22c-6,6 -12,6 -17,-2z"/>
   <path fill="#cf610f" id="svg_92" d="m1980,2330c0,-5 5,-10 11,-10c5,0 7,5 4,10c-3,6 -8,10 -11,10c-2,0 -4,-4 -4,-10z"/>
   <path fill="#cf610f" id="svg_93" d="m4070,2300c0,-5 5,-10 10,-10c6,0 10,5 10,10c0,6 -4,10 -10,10c-5,0 -10,-4 -10,-10z"/>
   <path fill="#cf610f" id="svg_94" d="m2832,2261c-7,-21 -11,-63 -11,-92l2,-54l7,60c5,33 13,73 19,88c13,34 13,37 3,37c-5,0 -14,-17 -20,-39z"/>
   <path fill="#cf610f" id="svg_95" d="m2236,2228c9,-57 14,-61 14,-10c0,22 -5,44 -10,47c-7,4 -8,-8 -4,-37z"/>
   <path fill="#cf610f" id="svg_96" d="m4180,2226c0,-20 -48,-56 -74,-57c-17,0 -15,-3 11,-16c18,-9 35,-25 39,-35c7,-23 24,-14 24,13c0,12 7,19 20,19c24,0 26,13 5,30c-9,8 -13,21 -9,36c4,15 2,24 -5,24c-6,0 -11,-6 -11,-14z"/>
   <path fill="#cf610f" id="svg_97" d="m2090,2210c0,-5 5,-10 11,-10c5,0 7,5 4,10c-3,6 -8,10 -11,10c-2,0 -4,-4 -4,-10z"/>
   <path fill="#cf610f" id="svg_98" d="m2120,2141c0,-6 5,-13 10,-16c6,-3 10,1 10,9c0,9 -4,16 -10,16c-5,0 -10,-4 -10,-9z"/>
   <path fill="#cf610f" id="svg_99" d="m2986,2143c-11,-11 -6,-23 9,-23c8,0 15,4 15,9c0,13 -16,22 -24,14z"/>
   <path fill="#cf610f" id="svg_100" d="m1930,2079c0,-5 5,-7 10,-4c6,3 10,8 10,11c0,2 -4,4 -10,4c-5,0 -10,-5 -10,-11z"/>
   <path fill="#cf610f" id="svg_101" d="m3080,2062c0,-11 -9,-31 -21,-46c-16,-20 -17,-26 -6,-26c8,0 22,-10 30,-22c16,-23 16,-23 16,-2c1,12 8,27 16,34c13,11 13,14 0,27c-8,8 -15,21 -15,28c0,8 -4,17 -10,20c-5,3 -10,-2 -10,-13zm15,-52c-3,-5 -11,-10 -16,-10c-6,0 -7,5 -4,10c3,6 11,10 16,10c6,0 7,-4 4,-10z"/>
   <path fill="#cf610f" id="svg_102" d="m4115,2071c-6,-11 9,-23 19,-14c9,9 7,23 -3,23c-6,0 -12,-4 -16,-9z"/>
   <path fill="#cf610f" id="svg_103" d="m2100,2060c0,-5 5,-10 10,-10c6,0 10,5 10,10c0,6 -4,10 -10,10c-5,0 -10,-4 -10,-10z"/>
   <path fill="#cf610f" id="svg_104" d="m2880,2060c0,-5 7,-10 16,-10c8,0 12,5 9,10c-3,6 -10,10 -16,10c-5,0 -9,-4 -9,-10z"/>
   <path fill="#cf610f" id="svg_105" d="m920,2040c0,-5 5,-10 10,-10c6,0 10,5 10,10c0,6 -4,10 -10,10c-5,0 -10,-4 -10,-10z"/>
   <path fill="#cf610f" id="svg_106" d="m1753,2005c-3,-9 -3,-18 0,-22c10,-10 37,6 37,22c0,20 -29,20 -37,0z"/>
   <path fill="#cf610f" id="svg_107" d="m2272,1975c-23,-20 -42,-43 -42,-51c0,-9 5,-12 12,-8c6,4 18,-2 26,-12c12,-16 14,-16 9,-2c-4,11 1,22 11,28c15,10 15,11 -2,6c-17,-6 -17,-5 -5,11c8,10 20,23 28,29c8,6 12,16 10,23c-3,7 -20,-2 -47,-24z"/>
   <path fill="#cf610f" id="svg_108" d="m3175,2000c4,-6 11,-8 16,-5c14,9 11,15 -7,15c-8,0 -12,-5 -9,-10z"/>
   <path fill="#cf610f" id="svg_109" d="m1625,1899c-10,-15 3,-25 16,-12c7,7 7,13 1,17c-6,3 -14,1 -17,-5z"/>
   <path fill="#cf610f" id="svg_110" d="m4071,1894c0,-11 3,-14 6,-6c3,7 2,16 -1,19c-3,4 -6,-2 -5,-13z"/>
   <path fill="#cf610f" id="svg_111" d="m1015,1871c-3,-5 -1,-12 5,-16c5,-3 10,1 10,9c0,18 -6,21 -15,7z"/>
   <path fill="#cf610f" id="svg_112" d="m2955,1830c-3,-5 -2,-10 4,-10c5,0 13,5 16,10c3,6 2,10 -4,10c-5,0 -13,-4 -16,-10z"/>
   <path fill="#cf610f" id="svg_113" d="m4090,1810c0,-5 7,-10 16,-10c8,0 12,5 9,10c-3,6 -10,10 -16,10c-5,0 -9,-4 -9,-10z"/>
   <path fill="#cf610f" id="svg_114" d="m2174,1793c2,-10 12,-18 22,-19c10,0 36,-6 56,-13c21,-7 46,-11 55,-8c11,2 0,8 -27,16c-38,10 -65,20 -102,39c-3,2 -5,-5 -4,-15z"/>
   <path fill="#cf610f" id="svg_115" d="m3346,1781c-4,-5 -2,-12 3,-15c5,-4 12,-2 15,3c4,5 2,12 -3,15c-5,4 -12,2 -15,-3z"/>
   <path fill="#cf610f" id="svg_116" d="m3072,1760c2,-8 28,-30 57,-50c51,-34 52,-35 45,-77c-4,-29 -3,-43 5,-43c6,0 11,16 11,35c0,43 8,44 45,5c16,-16 33,-30 39,-30c17,0 -67,81 -105,100c-20,11 -51,32 -69,47c-18,15 -31,21 -28,13z"/>
   <path fill="#cf610f" id="svg_117" d="m2698,1745c-3,-3 -32,-9 -64,-14c-53,-8 -55,-9 -18,-10c52,-1 104,9 104,20c0,10 -14,12 -22,4z"/>
   <path fill="#cf610f" id="svg_118" d="m3120,1662c0,-12 19,-26 26,-19c2,2 -2,10 -11,17c-9,8 -15,8 -15,2z"/>
   <path fill="#cf610f" id="svg_119" d="m1577,1573c-17,-27 -18,-27 -11,-3c6,22 5,23 -10,8c-18,-19 -21,-39 -6,-54c6,-6 3,-28 -10,-62c-11,-29 -15,-52 -10,-52c6,0 10,8 10,18c0,9 5,24 11,32c8,11 9,6 5,-22c-3,-22 -1,-38 5,-38c6,0 8,4 5,8c-2,4 -1,14 3,21c6,9 14,3 29,-21c20,-33 62,-77 62,-66c0,3 -14,22 -30,43c-17,21 -28,41 -25,44c4,3 10,-1 15,-9c16,-26 12,11 -5,40c-22,39 -18,44 11,13l25,-28l-25,49c-14,27 -22,54 -19,59c3,6 1,7 -5,3c-15,-9 -15,-1 -2,25c16,29 -3,23 -23,-8z"/>
   <path fill="#cf610f" id="svg_120" d="m2545,1590c-3,-5 -1,-10 4,-10c6,0 11,5 11,10c0,6 -2,10 -4,10c-3,0 -8,-4 -11,-10z"/>
   <path fill="#cf610f" id="svg_121" d="m3580,1545c0,-2 10,-10 23,-16c20,-11 21,-11 8,4c-13,16 -31,23 -31,12z"/>
   <path fill="#cf610f" id="svg_122" d="m2000,1430c0,-5 14,-10 30,-10c17,0 30,-4 30,-10c0,-5 10,-10 23,-10c18,0 19,2 7,10c-13,8 -12,10 5,11c11,1 2,5 -20,10c-55,11 -75,11 -75,-1z"/>
   <path fill="#cf610f" id="svg_123" d="m2120,1400c-1,-3 -3,-16 -6,-29c-3,-18 -1,-21 8,-13c7,5 24,12 38,15l25,4l-27,2c-14,0 -29,7 -31,14c-3,6 -6,10 -7,7z"/>
   <path fill="#cf610f" id="svg_124" d="m2291,1377c-9,-11 -8,-17 4,-27c19,-16 47,-5 43,17c-4,23 -31,28 -47,10zm29,-17c0,-5 -2,-10 -4,-10c-3,0 -8,5 -11,10c-3,6 -1,10 4,10c6,0 11,-4 11,-10z"/>
   <path fill="#cf610f" id="svg_125" d="m2496,1375c-30,-31 -15,-62 25,-50c15,5 19,14 17,33c-4,31 -20,38 -42,17z"/>
   <path fill="#cf610f" id="svg_126" d="m2004,1349c-3,-5 -2,-9 1,-9c4,0 59,-7 123,-15c64,-8 135,-16 157,-19c22,-2 49,-8 59,-12c12,-5 17,-4 13,3c-10,15 -81,31 -171,39c-44,3 -101,9 -128,13c-27,5 -51,4 -54,0z"/>
   <path fill="#cf610f" id="svg_127" d="m3258,1305c2,-14 6,-25 8,-25c2,0 4,11 4,25c0,14 -4,25 -9,25c-4,0 -6,-11 -3,-25z"/>
   <path fill="#cf610f" id="svg_128" d="m1696,1299c-3,-13 -15,-66 -26,-118c-12,-52 -23,-98 -26,-103c-3,-4 -1,-8 4,-8c9,0 65,240 57,248c-2,2 -6,-6 -9,-19z"/>
   <path fill="#cf610f" id="svg_129" d="m1950,1302c23,-15 120,-24 120,-12c0,5 -8,10 -19,10c-10,0 -40,3 -67,6c-32,3 -44,2 -34,-4z"/>
   <path fill="#cf610f" id="svg_130" d="m1737,1283c-4,-3 -7,-11 -7,-17c0,-6 5,-5 12,2c6,6 9,14 7,17c-3,3 -9,2 -12,-2z"/>
   <path fill="#cf610f" id="svg_131" d="m2090,1286c0,-2 7,-6 15,-10c8,-3 15,-1 15,4c0,6 -7,10 -15,10c-8,0 -15,-2 -15,-4z"/>
   <path fill="#cf610f" id="svg_132" d="m2149,1263c-5,-13 -9,-31 -9,-39c0,-19 30,-14 40,6c4,8 12,25 18,36c9,19 8,22 -14,22c-18,0 -28,-8 -35,-25zm22,-14c-5,-13 -10,-19 -10,-12c-1,15 10,45 15,40c3,-2 0,-15 -5,-28z"/>
   <path fill="#cf610f" id="svg_133" d="m3221,1183c-1,-56 3,-93 9,-93c12,0 12,137 0,165c-6,13 -9,-12 -9,-72z"/>
   <path fill="#cf610f" id="svg_134" d="m3448,1263c7,-3 16,-2 19,1c4,3 -2,6 -13,5c-11,0 -14,-3 -6,-6z"/>
   <path fill="#cf610f" id="svg_135" d="m2250,1214c0,-8 5,-12 10,-9c6,3 10,10 10,16c0,5 -4,9 -10,9c-5,0 -10,-7 -10,-16z"/>
   <path fill="#cf610f" id="svg_136" d="m3486,1215c4,-8 11,-15 16,-15c6,0 5,6 -2,15c-7,8 -14,15 -16,15c-2,0 -1,-7 2,-15z"/>
   <path fill="#cf610f" id="svg_137" d="m1810,1209c0,-5 5,-7 10,-4c6,3 10,8 10,11c0,2 -4,4 -10,4c-5,0 -10,-5 -10,-11z"/>
   <path fill="#cf610f" id="svg_138" d="m3731,1173c0,-25 1,-26 9,-8c12,27 12,35 0,35c-5,0 -10,-12 -9,-27z"/>
   <path fill="#cf610f" id="svg_139" d="m1926,1149c-3,-18 -6,-52 -6,-77c0,-42 1,-44 14,-26c8,10 10,21 5,25c-5,3 -6,24 0,52c5,26 5,49 1,52c-4,3 -10,-9 -14,-26z"/>
   <path fill="#cf610f" id="svg_140" d="m2051,1134c0,-11 3,-14 6,-6c3,7 2,16 -1,19c-3,4 -6,-2 -5,-13z"/>
   <path fill="#cf610f" id="svg_141" d="m2945,1130c-3,-5 -1,-10 4,-10c6,0 11,5 11,10c0,6 -2,10 -4,10c-3,0 -8,-4 -11,-10z"/>
   <path fill="#cf610f" id="svg_142" d="m2240,1104c-11,-12 -11,-18 2,-30c14,-14 17,-14 32,1c13,13 14,20 5,31c-15,18 -24,18 -39,-2zm30,-8c0,-3 -4,-8 -10,-11c-5,-3 -10,-1 -10,4c0,6 5,11 10,11c6,0 10,-2 10,-4z"/>
   <path fill="#cf610f" id="svg_143" d="m2836,1065c-47,-42 -57,-56 -51,-74c15,-49 85,-47 85,4c0,13 11,37 25,53c28,34 31,45 13,60c-10,7 -29,-4 -72,-43zm64,17c0,-5 -9,-17 -20,-27c-11,-10 -24,-32 -28,-49c-9,-35 -29,-40 -46,-13c-9,14 -5,22 23,44c18,14 38,32 45,39c13,15 26,18 26,6z"/>
   <path fill="#cf610f" id="svg_144" d="m2815,1000c-3,-5 1,-10 9,-10c9,0 16,5 16,10c0,6 -4,10 -9,10c-6,0 -13,-4 -16,-10z"/>
   <path fill="#cf610f" id="svg_145" d="m2975,1110c3,-5 8,-10 11,-10c2,0 4,5 4,10c0,6 -5,10 -11,10c-5,0 -7,-4 -4,-10z"/>
   <path fill="#cf610f" id="svg_146" d="m3659,1096c14,-15 26,-26 28,-26c9,0 -24,40 -37,45c-8,4 -4,-5 9,-19z"/>
   <path fill="#cf610f" id="svg_147" d="m2103,1048c-30,-14 -30,-51 -1,-78c28,-26 53,-25 72,2c19,27 20,39 4,60c-18,22 -49,28 -75,16zm62,-36c9,-25 -18,-46 -44,-33c-23,13 -28,47 -8,54c20,6 45,-4 52,-21z"/>
   <path fill="#cf610f" id="svg_148" d="m3366,997c8,-28 32,-67 42,-67c4,0 8,11 8,25c1,14 -2,25 -8,25c-5,0 -6,5 -3,10c3,6 1,10 -5,10c-6,0 -9,4 -6,8c2,4 -4,9 -15,9c-16,2 -19,-2 -13,-20z"/>
   <path fill="#cf610f" id="svg_149" d="m2942,986c7,-8 15,-12 17,-11c5,6 -10,25 -20,25c-5,0 -4,-6 3,-14z"/>
   <path fill="#cf610f" id="svg_150" d="m2980,980c0,-5 5,-10 11,-10c5,0 7,5 4,10c-3,6 -8,10 -11,10c-2,0 -4,-4 -4,-10z"/>
   <path fill="#cf610f" id="svg_151" d="m3350,962c0,-14 4,-21 11,-16c8,4 9,0 4,-15c-5,-16 -3,-20 9,-15c20,8 20,14 -4,44l-20,25l0,-23z"/>
   <path fill="#cf610f" id="svg_152" d="m2238,950c-7,-24 -3,-38 8,-28c3,4 4,17 2,30l-3,23l-7,-25z"/>
   <path fill="#cf610f" id="svg_153" d="m2901,961c-9,-6 -10,-11 -2,-15c6,-4 18,0 27,8c12,12 12,16 2,16c-7,0 -19,-4 -27,-9z"/>
   <path fill="#cf610f" id="svg_154" d="m2965,950c3,-5 11,-10 16,-10c6,0 7,5 4,10c-3,6 -11,10 -16,10c-6,0 -7,-4 -4,-10z"/>
   <path fill="#cf610f" id="svg_155" d="m2822,833c-21,-27 -22,-29 -5,-42c16,-11 9,-12 -49,-7c-37,4 -69,2 -72,-2c-6,-10 95,-22 177,-22c52,0 66,19 15,21c-24,1 -27,3 -10,6c12,2 22,8 22,12c0,8 -46,61 -53,61c-2,0 -13,-12 -25,-27zm45,-19c-3,-3 -12,-4 -19,-1c-8,3 -5,6 6,6c11,1 17,-2 13,-5z"/>
   <path fill="#cf610f" id="svg_156" d="m3896,3065c-11,-8 -17,-17 -14,-20c2,-3 13,4 23,15c21,23 18,25 -9,5z"/>
   <path fill="#cf610f" id="svg_157" d="m2711,1864c0,-11 3,-14 6,-6c3,7 2,16 -1,19c-3,4 -6,-2 -5,-13z"/>
   <path fill="#cf610f" id="svg_158" d="m2570,1239c37,-11 94,-48 87,-56c-3,-2 -20,5 -38,16c-52,32 -126,29 -175,-8c-82,-59 -102,-107 -80,-192c21,-79 70,-121 157,-134c43,-6 61,-2 133,33c5,3 5,-1 1,-8c-6,-9 -3,-10 12,-1c22,11 46,44 56,76c6,19 6,19 -6,1c-26,-39 -49,-67 -54,-63c-2,3 7,22 22,42c34,50 34,124 2,186c-13,24 -22,49 -20,55c5,16 -57,53 -98,59l-34,5l35,-11zm26,-101c29,-14 44,-49 44,-102c0,-64 -24,-88 -91,-93c-49,-4 -57,-2 -86,26c-29,26 -33,36 -33,79c0,37 5,53 23,70c43,40 88,47 143,20z"/>
   <path fill="#cf610f" id="svg_159" d="m2577,1088c11,-13 24,-33 28,-45c3,-13 11,-23 16,-23c6,0 7,10 4,23c-12,37 -35,67 -52,67c-14,0 -14,-3 4,-22z"/>
   <path fill="#cf610f" id="svg_160" d="m2475,1040c-3,-5 -1,-10 4,-10c6,0 11,5 11,10c0,6 -2,10 -4,10c-3,0 -8,-4 -11,-10z"/>
   <path fill="#cf610f" id="svg_161" d="m2600,985c-8,-9 -8,-15 -2,-15c12,0 26,19 19,26c-2,2 -10,-2 -17,-11z"/>
   <path fill="#cf610f" id="svg_162" d="m2366,1165c-9,-26 -7,-32 5,-12c6,10 9,21 6,23c-2,3 -7,-2 -11,-11z"/>
   <path fill="#cf610f" id="svg_163" d="m2332,1060c0,-19 2,-27 5,-17c2,9 2,25 0,35c-3,9 -5,1 -5,-18z"/>
   <path fill="#cf610f" id="svg_164" d="m859,4280c-7,-38 34,-105 117,-190l74,-75l-54,-57c-30,-31 -59,-65 -65,-75c-11,-17 -13,-16 -34,12c-38,51 -227,230 -227,215c0,-14 76,-103 154,-180c42,-41 76,-81 76,-88c0,-7 5,-10 10,-7c6,4 30,-11 54,-32c73,-65 109,-94 112,-90c5,5 -78,89 -118,121l-32,25l54,58c29,32 59,64 66,72c11,12 20,7 60,-28c26,-22 51,-41 56,-41c5,0 32,-18 60,-40c28,-23 53,-38 57,-35c3,4 -3,13 -14,21c-26,18 -217,188 -264,234c-74,73 -127,144 -133,180l-4,25l-5,-25z"/>
   <path fill="#cf610f" id="svg_165" d="m4147,4163c-60,-60 -120,-125 -133,-146c-14,-21 -41,-56 -62,-79c-45,-50 -13,-36 37,16c19,20 40,36 47,36c6,0 37,13 68,29c31,15 59,25 61,20c3,-4 -7,-22 -22,-41l-27,-33l31,29c35,31 60,28 42,-5c-6,-12 -8,-23 -5,-26c3,-3 8,2 12,11c3,9 12,16 20,16c16,0 20,-55 4,-65c-10,-6 -107,-134 -133,-175c-8,-14 -18,-45 -21,-70c-4,-33 -4,-39 3,-23c12,28 76,118 113,161c15,18 34,48 42,66c8,19 19,37 25,40c6,4 11,16 11,27c0,13 7,19 21,19c34,0 77,32 95,69c15,32 15,38 -1,89c-16,52 -84,142 -108,142c-5,0 -59,-48 -120,-107zm138,67c3,-5 -3,-10 -15,-10c-12,0 -18,5 -15,10c3,6 10,10 15,10c5,0 12,-4 15,-10zm36,-55c11,-16 17,-36 14,-42c-2,-7 1,-12 8,-10c7,1 13,-13 15,-35c3,-30 -2,-43 -23,-64c-22,-22 -32,-25 -62,-19c-21,4 -45,17 -56,31c-11,14 -33,38 -51,54l-31,29l45,46c39,40 49,45 84,43c31,-2 42,-8 57,-33zm-186,-126c-7,-10 -71,-39 -88,-39c-6,0 4,16 23,35c27,28 37,32 52,24c10,-5 16,-14 13,-20z"/>
   <path fill="#cf610f" id="svg_166" d="m4470,3994l35,-16l-55,-46c-30,-25 -87,-79 -126,-119l-71,-74l-43,10c-42,9 -70,6 -70,-9c0,-4 11,-5 24,-3c13,3 54,-9 95,-27c40,-17 82,-30 94,-27c21,3 21,4 2,11c-71,27 -67,22 -47,55c10,17 58,67 106,113l88,82l72,-1c75,-1 75,-1 -9,32c-16,7 -43,17 -58,24c-15,6 -38,11 -50,11c-17,-1 -15,-4 13,-16z"/>
   <path fill="#cf610f" id="svg_167" d="m690,3908c0,-12 -20,-53 -44,-92c-56,-90 -120,-215 -113,-222c3,-3 19,20 37,50c17,31 38,56 47,56c16,0 101,-45 168,-90c75,-50 135,-82 135,-72c0,6 -56,46 -125,89c-109,68 -125,81 -125,105c0,14 -5,28 -12,30c-6,2 -9,12 -5,21c6,17 8,17 32,1c14,-9 28,-14 32,-11c3,4 -6,12 -21,18c-31,15 -32,23 -6,56c21,27 28,83 10,83c-5,0 -10,-10 -10,-22zm-40,-169c0,-6 -4,-7 -10,-4c-5,3 -10,11 -10,16c0,6 5,7 10,4c6,-3 10,-11 10,-16z"/>
   <path fill="#cf610f" id="svg_168" d="m4628,3830c-20,-11 -47,-30 -60,-43c-48,-47 -115,-96 -180,-132c-38,-20 -71,-41 -74,-46c-3,-6 5,-20 18,-32c12,-13 47,-51 77,-85c82,-95 91,-75 12,27c-43,55 -64,95 -52,99c6,2 27,15 47,28c52,35 92,30 116,-16c26,-47 73,-90 100,-90c20,0 18,3 -14,25c-20,13 -54,51 -76,85l-40,60l25,20c19,15 41,20 83,20l58,0l56,-65c47,-52 60,-62 71,-52c11,10 8,17 -16,41c-16,15 -29,32 -29,37c0,5 -18,28 -40,51c-31,32 -39,49 -35,66c7,27 1,27 -47,2zm22,-46c0,-9 -11,-14 -32,-14l-33,0l25,19c26,21 40,19 40,-5z"/>
   <path fill="#cf610f" id="svg_169" d="m480,3618c-1,-13 -8,-41 -16,-63c-17,-44 -29,-208 -13,-184c5,8 9,23 9,35c0,11 8,28 18,37c17,15 21,15 58,-10c21,-15 71,-40 109,-56c89,-36 135,-78 136,-126c1,-22 3,-28 6,-16c3,11 16,33 29,48c24,28 32,53 15,42c-20,-12 -20,15 0,52c17,31 17,34 2,16c-10,-12 -25,-32 -33,-44l-16,-21l-50,31c-28,17 -55,31 -59,31c-5,0 -51,25 -102,56c-81,48 -94,60 -89,78c14,59 17,104 7,110c-7,5 -11,-2 -11,-16z"/>
   <path fill="#cf610f" id="svg_170" d="m4855,3539c-16,-10 -69,-34 -117,-54c-140,-56 -310,-156 -293,-173c2,-2 16,5 31,17c15,11 33,21 40,21c7,0 71,29 140,65c70,35 130,63 132,60c2,-2 -19,-32 -47,-66c-55,-65 -101,-156 -127,-249c-9,-30 -24,-70 -35,-87c-23,-41 -18,-41 32,-3c21,17 57,44 79,60c49,38 177,100 206,100c11,0 24,3 27,6c16,16 125,54 157,55c33,0 34,1 10,10c-33,13 -86,3 -196,-36c-123,-45 -192,-80 -238,-124c-27,-25 -37,-30 -31,-16c4,11 13,39 20,61c20,63 40,97 98,166c29,35 64,81 79,103c14,22 40,55 56,73c34,35 23,41 -23,11z"/>
   <path fill="#cf610f" id="svg_171" d="m712,3223c-11,-27 -23,-58 -27,-71c-7,-23 -63,-72 -83,-72c-15,0 -132,47 -269,109c-62,27 -113,46 -113,42c0,-18 264,-146 385,-186c39,-13 79,-27 89,-31c19,-7 19,-6 4,15c-13,18 -14,29 -6,53c7,18 15,27 24,24c8,-3 14,-1 14,3c0,5 -5,11 -12,13c-6,2 -9,12 -5,21c6,15 9,15 41,2c49,-21 57,-19 20,4c-43,26 -46,33 -35,80c12,55 -2,52 -27,-6zm-38,-140c-4,-15 -11,-19 -26,-15c-21,5 -21,5 2,24c27,22 31,20 24,-9z"/>
   <path fill="#cf610f" id="svg_172" d="m5020,3109c-25,-11 -83,-29 -130,-40c-47,-11 -102,-26 -122,-34c-45,-17 -104,-22 -138,-11c-23,8 -24,8 -9,-15c18,-28 30,-79 18,-79c-15,0 -62,-21 -57,-25c2,-3 19,0 38,5c27,8 35,6 46,-8c11,-15 9,-19 -14,-29c-15,-7 -21,-12 -14,-13c7,0 22,4 32,10c13,7 21,6 30,-5c14,-17 -1,-24 -118,-55c-115,-30 -108,-41 10,-14c93,21 122,22 168,8c26,-9 -11,-25 -42,-18c-15,3 -33,2 -40,-3c-7,-4 -40,-13 -73,-20l-60,-12l55,4c30,3 82,9 115,15c33,6 87,12 120,14c40,2 77,11 110,28c43,22 55,35 82,91c31,61 32,68 23,118c-9,48 -8,57 10,81c24,33 20,33 -40,7zm5,-98c4,-51 3,-53 -28,-66c-29,-12 -29,-13 -9,-17c23,-3 23,-3 -8,-44c-33,-46 -89,-74 -146,-74c-30,0 -44,8 -81,48c-50,53 -77,98 -70,116c3,7 31,18 63,25c67,15 136,36 209,61c28,10 54,15 58,11c5,-5 10,-32 12,-60z"/>
   <path fill="#cf610f" id="svg_173" d="m4925,3030c3,-5 11,-10 16,-10c6,0 7,5 4,10c-3,6 -11,10 -16,10c-6,0 -7,-4 -4,-10z"/>
   <path fill="#cf610f" id="svg_174" d="m4947,2993c-16,-8 -26,-17 -24,-20c6,-5 67,24 67,32c0,8 -13,4 -43,-12z"/>
   <path fill="#cf610f" id="svg_175" d="m292,3043c-7,-3 -25,-23 -39,-46c-30,-48 -45,-154 -22,-161c8,-2 66,-20 129,-40c150,-47 348,-87 336,-68c-5,9 -39,20 -182,61c-70,21 -71,21 -70,56c1,24 6,35 16,35c12,1 12,3 -2,14c-10,7 -20,30 -24,52c-7,48 -36,81 -83,94c-39,11 -40,11 -59,3zm92,-46c17,-17 25,-39 30,-90c4,-38 4,-72 1,-76c-3,-5 -23,-4 -44,1c-34,9 -42,16 -60,58c-12,27 -26,52 -32,56c-13,7 -3,56 14,66c24,15 68,8 91,-15zm-95,-91c28,-44 27,-59 -1,-50c-28,8 -41,26 -26,35c9,6 9,11 0,22c-7,7 -9,17 -5,20c9,10 10,10 32,-27z"/>
   <path fill="#cf610f" id="svg_176" d="m320,2910c8,-5 22,-10 30,-10c13,0 13,1 0,10c-8,5 -22,10 -30,10c-13,0 -13,-1 0,-10z"/>
   <path fill="#cf610f" id="svg_177" d="m4880,2739c-38,-15 -108,-89 -116,-122c-4,-19 -16,-34 -37,-43l-32,-15l28,4c26,4 28,2 21,-17c-4,-11 -7,-35 -7,-53c-1,-32 -1,-32 -56,-36l-56,-3l61,-2c44,-1 63,-6 68,-17c8,-22 67,-55 99,-55c57,0 78,28 111,150c10,35 26,66 46,85c26,25 34,27 58,19c33,-11 51,-57 51,-131c1,-46 -2,-54 -28,-72c-16,-12 -41,-21 -54,-21c-14,0 -29,-5 -33,-12c-5,-8 -2,-9 9,-5c10,4 31,-7 58,-28c22,-19 45,-35 50,-35c13,0 -7,37 -23,42c-8,3 -5,13 10,33c29,36 44,94 36,136c-15,77 -76,157 -111,145c-24,-8 -73,-52 -73,-66c0,-5 -5,-10 -11,-10c-5,0 -7,5 -4,10c8,13 -1,13 -24,-2c-19,-12 -19,-12 0,-40c19,-26 19,-30 4,-82c-25,-84 -34,-86 -99,-22c-31,30 -56,61 -56,70c0,9 14,19 33,25c26,7 28,9 9,10c-21,1 -23,4 -17,34c8,35 39,70 99,111c39,26 33,33 -14,15zm70,-154c0,-8 -4,-15 -10,-15c-5,0 -10,7 -10,15c0,8 5,15 10,15c6,0 10,-7 10,-15zm-140,-123c-20,-7 -40,7 -40,29l0,22l26,-24c14,-13 20,-25 14,-27zm40,-27c7,-9 10,-18 6,-22c-9,-10 -59,10 -64,25c-6,18 43,15 58,-3z"/>
   <path fill="#cf610f" id="svg_178" d="m226,2707c2,-7 -3,-30 -11,-52c-23,-54 -23,-153 0,-188c36,-55 69,-57 99,-7c10,18 25,30 38,30c20,0 20,1 5,13c-14,11 -14,16 -1,46c14,32 16,33 56,27c40,-7 41,-6 25,12c-21,23 -21,39 -2,59c22,22 62,9 80,-27c14,-26 14,-37 1,-99c-8,-38 -24,-88 -36,-111l-21,-41l22,11c12,7 26,25 33,41c6,18 16,27 24,24c8,-3 32,-7 55,-10c42,-4 42,-4 -10,13c-29,9 -53,20 -53,25c0,4 6,5 13,1c9,-5 9,-4 0,6c-19,21 -4,41 26,34l26,-6l-22,16c-17,12 -23,27 -23,53c0,43 -30,95 -65,111c-20,9 -33,9 -59,-2c-28,-12 -42,-31 -87,-121c-29,-58 -57,-109 -61,-111c-4,-3 -19,7 -33,22c-21,23 -25,37 -25,88c0,44 6,70 21,95c21,36 19,61 -5,61c-9,0 -13,-6 -10,-13zm189,-107c3,-5 -1,-10 -10,-10c-9,0 -13,5 -10,10c3,6 8,10 10,10c2,0 7,-4 10,-10z"/>
   <path fill="#cf610f" id="svg_179" d="m4868,2593c7,-3 16,-2 19,1c4,3 -2,6 -13,5c-11,0 -14,-3 -6,-6z"/>
   <path fill="#cf610f" id="svg_180" d="m5078,2563c7,-3 16,-2 19,1c4,3 -2,6 -13,5c-11,0 -14,-3 -6,-6z"/>
   <path fill="#cf610f" id="svg_181" d="m4106,1044c-20,-20 -20,-38 0,-59c29,-29 62,3 50,48c-7,30 -27,35 -50,11z"/>
   <path fill="#cf610f" id="svg_182" d="m3940,980c-25,-16 -51,-30 -57,-30c-8,0 -13,-12 -12,-27c0,-27 1,-27 9,-5c11,25 20,27 40,10c12,-11 12,-10 1,5c-11,14 -11,17 2,17c9,0 31,-26 51,-57c35,-58 106,-136 106,-117c0,6 -9,19 -20,29c-26,23 -110,148 -110,163c0,16 13,15 29,0c10,-11 11,-9 5,6c-4,11 -2,21 7,27c8,5 10,9 4,9c-5,0 -30,-14 -55,-30z"/>
   <path fill="#cf610f" id="svg_183" d="m1042,988c-17,-17 -15,-35 5,-42c21,-8 48,17 40,38c-8,19 -28,21 -45,4z"/>
   <path fill="#cf610f" id="svg_184" d="m1174,957c-78,-118 -96,-148 -92,-152c3,-3 20,17 39,45c33,49 56,60 52,25c-1,-12 2,-14 9,-7c8,8 17,8 30,1c39,-21 29,0 -11,23c-22,13 -41,25 -41,28c0,3 9,16 19,29l18,23l51,-26c29,-15 52,-23 52,-18c0,4 -21,19 -47,32c-27,14 -50,26 -53,27c-3,2 -15,-12 -26,-30z"/>
   <path fill="#cf610f" id="svg_185" d="m3821,945c0,-33 24,-89 55,-130c16,-21 24,-36 19,-34c-6,2 -43,21 -84,42c-40,21 -74,37 -76,35c-2,-2 17,-41 41,-87c24,-47 44,-78 44,-70c0,8 -11,35 -25,61c-29,55 -30,58 -10,58c9,0 30,-20 47,-45c33,-47 52,-56 23,-11c-21,31 -16,32 27,6c54,-33 60,-23 22,32c-21,29 -47,77 -60,108c-13,30 -23,46 -23,35z"/>
   <path fill="#cf610f" id="svg_186" d="m1313,905c1,-6 -8,-24 -19,-40c-12,-17 -29,-46 -39,-65c-10,-19 -23,-39 -29,-43c-7,-5 -5,-7 6,-5c9,2 32,32 51,68c18,36 43,69 55,75c29,13 28,20 -3,20c-14,0 -24,-5 -22,-10z"/>
   <path fill="#cf610f" id="svg_187" d="m1388,873c-28,-33 -98,-165 -85,-160c20,8 58,-28 51,-50c-5,-16 -5,-17 6,-1c8,14 16,15 35,8c41,-15 29,8 -12,25c-61,26 -66,33 -44,69c31,52 71,126 67,126c-1,0 -10,-8 -18,-17z"/>
   <path fill="#cf610f" id="svg_188" d="m3684,855c-9,-13 -31,-34 -50,-46c-19,-11 -34,-26 -34,-33c0,-7 15,-47 33,-88l33,-76l24,19c32,24 33,24 54,-12c10,-17 20,-28 23,-26c2,3 -3,17 -13,32c-16,25 -16,27 5,41c43,30 20,33 -30,3c-53,-31 -62,-30 -73,8c-6,18 0,27 33,49c53,35 54,52 1,19c-22,-14 -42,-25 -45,-25c-3,0 -5,15 -5,33c0,22 -3,28 -9,18c-5,-7 -11,-9 -14,-4c-4,6 13,24 37,41c24,17 46,41 49,52c7,27 1,25 -19,-5z"/>
   <path fill="#cf610f" id="svg_189" d="m1483,737c-23,-48 -51,-97 -62,-109c-24,-25 -28,-47 -6,-28c8,7 15,9 15,4c0,-4 20,33 44,82c41,83 44,87 51,61c7,-27 5,-51 -9,-92c-7,-20 -7,-20 6,-1c7,11 24,31 37,45c37,38 46,7 16,-55c-26,-52 -32,-79 -15,-69c7,4 9,-3 5,-19c-3,-14 -8,-38 -11,-53c-8,-41 2,-25 24,37c10,30 23,64 27,75c8,20 8,20 -13,1c-33,-28 -27,-11 24,76c26,43 44,81 42,83c-2,3 -28,-11 -57,-30c-56,-37 -55,-38 -68,35l-8,44l-42,-87zm137,-12c-7,-9 -15,-13 -17,-11c-7,7 7,26 19,26c6,0 6,-6 -2,-15z"/>
   <path fill="#cf610f" id="svg_190" d="m3494,706c-10,-31 -20,-56 -23,-56c-3,0 -17,16 -30,35c-30,44 -42,45 -34,3c8,-46 44,-140 50,-134c3,2 -5,30 -16,62c-12,31 -20,58 -18,60c2,2 17,-14 33,-36c16,-22 32,-40 35,-40c3,0 6,14 7,31c0,17 3,33 5,36c13,12 55,-31 67,-68c8,-22 18,-42 22,-46c21,-12 18,9 -10,69c-17,35 -34,75 -37,90c-4,15 -13,32 -20,38c-11,9 -17,0 -31,-44zm43,-32c-9,-9 -28,6 -21,18c4,6 10,6 17,-1c6,-6 8,-13 4,-17z"/>
   <path fill="#cf610f" id="svg_191" d="m3363,610l2,-101l-40,41c-58,58 -125,114 -125,103c0,-5 16,-53 34,-108c19,-55 35,-89 35,-75c0,14 -8,50 -19,80c-10,30 -18,56 -17,57c2,1 17,-7 35,-18c21,-14 35,-33 42,-60c6,-21 13,-39 16,-39c4,0 4,7 0,15c-12,32 31,2 70,-50c9,-11 13,-14 9,-8c-18,36 -33,153 -28,211c4,34 2,52 -5,52c-7,0 -10,-33 -9,-100z"/>
   <path fill="#cf610f" id="svg_192" d="m1771,689c-18,-7 -22,-14 -17,-33c4,-15 0,-28 -9,-36c-20,-17 -19,-62 3,-81c21,-18 79,-7 89,16c3,8 9,13 13,10c5,-3 18,8 30,25c25,35 17,41 -10,8c-15,-19 -21,-21 -43,-11c-21,10 -28,9 -43,-8c-18,-20 -18,-20 9,-14c28,7 39,-8 13,-18c-43,-17 -86,34 -50,60c10,7 24,13 32,13c12,0 12,4 -2,19c-31,34 6,58 39,25c23,-23 32,-8 10,16c-20,22 -29,23 -64,9z"/>
   <path fill="#cf610f" id="svg_193" d="m3155,652c-12,-9 -27,-26 -35,-37c-14,-18 -14,-19 2,-6c20,15 19,18 39,-69c7,-30 15,-48 17,-38c2,9 -3,40 -11,70c-12,47 -12,57 1,76c17,26 14,27 -13,4z"/>
   <path fill="#cf610f" id="svg_194" d="m2075,631c-61,-5 -70,-9 -72,-26c-5,-64 -17,-132 -26,-142c-5,-7 -8,-13 -6,-13c102,-13 157,0 68,15c-38,7 -40,9 -34,33c8,33 4,30 51,38c54,8 56,14 5,14c-42,0 -42,0 -39,33c2,24 8,33 26,35c16,2 22,-2 23,-15c0,-10 3,-13 6,-5c2,6 15,12 28,12c12,0 28,7 35,15c7,8 11,14 9,13c-2,-1 -35,-4 -74,-7z"/>
   <path fill="#cf610f" id="svg_195" d="m2926,603c-15,-8 -46,-18 -67,-20c-47,-7 -52,-12 -27,-36c15,-14 18,-15 16,-3c-2,8 2,15 7,16c6,0 13,-24 17,-55c4,-31 12,-63 18,-73c9,-14 10,-12 5,12c-16,73 -17,87 -11,111c8,31 23,33 29,3c4,-20 4,-19 6,5c0,16 7,27 15,27c8,0 16,7 20,15c3,8 4,15 3,14c-1,-1 -15,-8 -31,-16z"/>
   <path fill="#cf610f" id="svg_196" d="m3017,553c-22,-94 -26,-135 -16,-158c5,-14 8,-5 8,31l1,52l38,5c20,2 40,2 45,0c4,-2 18,-26 32,-53c14,-27 29,-52 35,-55c6,-4 -2,20 -19,53c-23,46 -27,62 -18,72c10,10 8,12 -6,7c-28,-10 -32,20 -6,44l24,21l-28,-16l-28,-17l-17,40c-9,23 -20,41 -23,41c-4,0 -14,-30 -22,-67zm33,27c0,-5 -4,-10 -10,-10c-5,0 -10,5 -10,10c0,6 5,10 10,10c6,0 10,-4 10,-10zm18,-45c16,-34 16,-32 -18,-37c-25,-4 -30,-1 -30,17c0,20 17,45 30,45c4,0 12,-11 18,-25z"/>
   <path fill="#cf610f" id="svg_197" d="m2487,593c-4,-3 -30,-7 -59,-8c-119,-6 -114,-5 -95,-16c9,-5 21,-8 26,-5c5,4 16,4 23,1c12,-5 14,-23 10,-83c-2,-42 1,-88 6,-102c9,-20 11,-5 11,68c1,104 10,122 59,122c17,0 32,6 36,15c5,15 -5,20 -17,8z"/>
   <path fill="#cf610f" id="svg_198" d="m2593,580c-81,-12 -83,-13 -83,-67c0,-66 11,-124 21,-117c5,3 10,-7 10,-23l1,-28l7,30c4,18 13,29 21,27c60,-14 75,-14 63,-2c-6,7 -32,15 -58,17c-43,5 -46,8 -43,32c3,26 35,42 47,23c4,-6 15,-6 30,-1c34,13 20,22 -33,21c-37,-1 -45,2 -50,21c-8,31 13,47 72,54c29,3 55,10 58,14c3,5 2,8 -3,8c-4,-1 -32,-5 -60,-9z"/>
   <path fill="#cf610f" id="svg_199" d="m2678,573c-14,-4 -18,-15 -17,-56c1,-78 14,-146 23,-124c5,9 6,29 3,43c-5,28 23,50 50,40c13,-5 15,-18 10,-69c-5,-58 -5,-60 8,-32c17,37 19,87 3,103c-9,9 -8,16 4,29c26,31 29,41 12,57c-15,15 -58,19 -96,9zm22,-28c0,-8 5,-15 10,-15c6,0 10,7 10,15c0,18 26,20 36,3c8,-13 -39,-58 -60,-58c-13,0 -28,55 -18,65c10,10 22,5 22,-10z"/>
   <path fill="#cf610f" id="svg_200" d="m3170,465c-19,-23 -8,-26 20,-5c19,15 21,20 9,20c-9,0 -22,-7 -29,-15z"/>
  </g>
 </g>
</svg>